<svg width="1200" height="404" viewBox="0 0 1200 404" fill="none" xmlns="http://www.w3.org/2000/svg">
<g clip-path="url(#clip0_2104_1305)">
<rect width="1200" height="404" rx="24" fill="url(#paint0_linear_2104_1305)"/>
<path d="M1331.06 144.171C1314.85 190.162 1279.47 203.911 1231.06 201.671C1182.92 198.264 1140.58 173.833 1096.56 137.671C1052.43 96.8314 1048.92 58.4809 1088.56 8.17093C1125.54 -39.9767 1173.56 -62.4066 1221.06 -52.8291C1269.01 -44.5054 1305.11 -17.9597 1329.06 19.1709C1347.34 61.4958 1351.82 101.487 1331.06 144.171Z" fill="#5857DA"/>
<path d="M1331.06 144.171C1309.4 188.239 1276.12 204.577 1231.06 201.671L1331.06 144.171ZM1331.06 144.171C1310.98 185.46 1279.94 206.463 1231.06 201.671L1331.06 144.171ZM1231.06 201.671C1184.76 195.402 1141.15 174.275 1096.56 137.671L1231.06 201.671ZM1231.06 201.671C1185.71 195.767 1140.41 175.19 1096.56 137.671L1231.06 201.671ZM1096.56 137.671C1052.69 97.6115 1050.96 55.0514 1088.56 8.17085L1096.56 137.671ZM1096.56 137.671C1052.05 100.552 1052.96 57.0512 1088.56 8.17085L1096.56 137.671ZM1088.56 8.17085C1124.46 -38.4621 1170.57 -59.1734 1221.06 -52.8292L1088.56 8.17085ZM1088.56 8.17085C1123.95 -39.9391 1171.9 -60.2712 1221.06 -52.8292L1088.56 8.17085ZM1221.06 -52.8292C1273.37 -45.8167 1308.36 -23.314 1329.06 19.1708L1221.06 -52.8292ZM1221.06 -52.8292C1272.01 -47.7791 1306.73 -20.5785 1329.06 19.1708L1221.06 -52.8292ZM1329.06 19.1708C1349.38 58.3838 1348.87 102.549 1331.06 144.171L1329.06 19.1708ZM1329.06 19.1708C1351.37 58.9435 1352.78 102.111 1331.06 144.171L1329.06 19.1708Z" fill="#5857DA"/>
<path d="M160.851 351.411C172.652 398.728 150.692 429.693 109.06 454.484C66.9979 478.162 18.2041 481.093 -38.4489 475.154C-97.7787 465.378 -121.833 435.304 -116.457 371.477C-112.119 310.926 -84.3978 265.757 -39.4698 247.581C5.13348 228.117 49.8841 230.389 90.3286 248.185C128.893 273.446 154.664 304.353 160.851 351.411Z" fill="#5857DA"/>
<path d="M160.851 351.411C167.041 400.125 148.264 432.094 109.06 454.484L160.851 351.411ZM160.851 351.411C166.833 396.934 152.493 431.562 109.06 454.484L160.851 351.411ZM109.06 454.484C66.9628 474.756 18.9291 481.143 -38.4489 475.154L109.06 454.484ZM109.06 454.484C67.9579 474.537 18.8135 482.316 -38.4489 475.154L109.06 454.484ZM-38.4489 475.154C-97.1357 465.888 -122.021 431.318 -116.457 371.477L-38.4489 475.154ZM-38.4489 475.154C-96.0481 468.694 -119.252 431.887 -116.457 371.477L-38.4489 475.154ZM-116.457 371.477C-112.185 312.784 -85.1081 270.099 -39.4698 247.581L-116.457 371.477ZM-116.457 371.477C-113.427 311.834 -84.6067 268.453 -39.4698 247.581L-116.457 371.477ZM-39.4698 247.581C8.04896 224.622 49.6469 224.131 90.3286 248.185L-39.4698 247.581ZM-39.4698 247.581C5.83302 223.733 49.794 227.311 90.3286 248.185L-39.4698 247.581ZM90.3286 248.185C128.88 269.725 152.784 306.866 160.851 351.411L90.3286 248.185ZM90.3286 248.185C130.852 269.094 155.811 304.344 160.851 351.411L90.3286 248.185Z" fill="#5857DA"/>
</g>
<defs>
<linearGradient id="paint0_linear_2104_1305" x1="600" y1="0" x2="600" y2="404" gradientUnits="userSpaceOnUse">
<stop stop-color="#3736AE"/>
<stop offset="1" stop-color="#2D235D"/>
</linearGradient>
<clipPath id="clip0_2104_1305">
<rect width="1200" height="404" rx="24" fill="white"/>
</clipPath>
</defs>
</svg>
