<svg width="48" height="48" viewBox="0 0 48 48" fill="none" xmlns="http://www.w3.org/2000/svg">
<rect width="48" height="48" rx="24" fill="#F1F1FF"/>
<path d="M21.7492 13.0353C21.8028 13.035 21.8564 13.0346 21.9117 13.0343C22.0882 13.0333 22.2647 13.0331 22.4412 13.033C22.5646 13.0327 22.6881 13.0324 22.8115 13.032C23.07 13.0314 23.3285 13.0312 23.5871 13.0313C23.917 13.0313 24.2469 13.03 24.5769 13.0282C24.8318 13.0271 25.0868 13.0269 25.3417 13.027C25.4633 13.0269 25.5848 13.0264 25.7064 13.0256C26.9293 13.0186 26.9293 13.0186 27.45 13.2498C27.4991 13.2716 27.5481 13.2933 27.5987 13.3157C28.2348 13.6145 28.6508 14.15 28.9058 14.7899C29.0633 15.2493 29.074 15.6621 29.0625 16.1405C29.0615 16.2146 29.0606 16.2887 29.0598 16.3628C29.0576 16.5419 29.0542 16.7208 29.05 16.8998C29.1088 16.8995 29.1676 16.8992 29.2282 16.8988C29.7843 16.8958 30.3404 16.8935 30.8964 16.8921C31.1823 16.8913 31.4681 16.8902 31.754 16.8885C32.0302 16.8869 32.3064 16.886 32.5826 16.8856C32.6876 16.8853 32.7926 16.8848 32.8976 16.884C33.8296 16.877 34.6263 16.9493 35.3336 17.6209C35.928 18.2792 35.9734 19.0326 35.9699 19.8733C35.97 19.9618 35.9702 20.0503 35.9704 20.1388C35.9706 20.3234 35.9703 20.5079 35.9696 20.6925C35.9687 20.9275 35.9692 21.1625 35.9701 21.3975C35.9706 21.58 35.9705 21.7624 35.9701 21.9449C35.97 22.0315 35.9701 22.1181 35.9704 22.2047C35.9732 23.0829 35.8354 23.7306 35.2453 24.4104C35.15 24.4998 35.15 24.4998 34.9964 24.5846C34.8369 24.6858 34.8369 24.6858 34.8127 24.8518C34.8128 24.9117 34.8129 24.9716 34.813 25.0334C34.8127 25.0669 34.8123 25.1003 34.812 25.1348C34.8111 25.247 34.8124 25.359 34.8137 25.4711C34.8136 25.5516 34.8133 25.632 34.8129 25.7124C34.8122 25.8856 34.8126 26.0588 34.8136 26.232C34.8153 26.5063 34.8148 26.7805 34.814 27.0548C34.8131 27.4891 34.8136 27.9233 34.8146 28.3575C34.8165 29.1339 34.8167 29.9103 34.8154 30.6867C34.815 30.9589 34.8154 31.2311 34.8165 31.5034C34.8171 31.6734 34.817 31.8434 34.8168 32.0135C34.8168 32.0919 34.8171 32.1702 34.8177 32.2486C34.8235 33.0568 34.6868 33.6832 34.1238 34.2801C33.5397 34.8449 32.8989 34.9808 32.1043 34.9752C32.0311 34.9755 31.958 34.9758 31.8849 34.9762C31.6858 34.977 31.4868 34.9766 31.2877 34.976C31.0723 34.9755 30.8569 34.9762 30.6415 34.9768C30.2202 34.9777 29.7989 34.9775 29.3776 34.9769C29.0351 34.9764 28.6926 34.9764 28.35 34.9766C28.3012 34.9766 28.2523 34.9767 28.202 34.9767C28.1027 34.9768 28.0035 34.9768 27.9043 34.9769C26.9747 34.9775 26.0452 34.9768 25.1156 34.9757C24.319 34.9748 23.5223 34.975 22.7256 34.9759C21.7993 34.977 20.8729 34.9774 19.9466 34.9768C19.8477 34.9767 19.7489 34.9767 19.65 34.9766C19.6013 34.9766 19.5527 34.9765 19.5026 34.9765C19.1607 34.9763 18.8188 34.9766 18.4768 34.9771C18.0598 34.9777 17.6429 34.9775 17.2259 34.9764C17.0134 34.9759 16.8008 34.9757 16.5883 34.9764C16.3934 34.977 16.1985 34.9766 16.0035 34.9756C15.9334 34.9753 15.8632 34.9755 15.7931 34.9759C14.994 34.9811 14.3926 34.7773 13.8094 34.228C13.3811 33.7755 13.1924 33.2271 13.1951 32.6089C13.1952 32.5584 13.1952 32.5584 13.1953 32.5069C13.1956 32.3945 13.1963 32.2821 13.1969 32.1697C13.1971 32.0889 13.1974 32.0082 13.1976 31.9274C13.198 31.7537 13.1986 31.58 13.1992 31.4062C13.2001 31.1314 13.2002 30.8566 13.2001 30.5817C13.2001 30.5353 13.2001 30.4889 13.2 30.4411C13.2 30.2982 13.1999 30.1552 13.1998 30.0123C13.1995 29.4206 13.1997 28.829 13.2026 28.2373C13.2046 27.8056 13.2051 27.3739 13.2038 26.9421C13.2031 26.7137 13.2032 26.4854 13.2053 26.2571C13.2072 26.0422 13.2071 25.8275 13.2053 25.6127C13.205 25.534 13.2055 25.4552 13.2068 25.3765C13.2249 24.9504 13.2249 24.9504 13.0505 24.578C12.9376 24.4901 12.8241 24.4205 12.7 24.3498C12.2433 23.8537 12.043 23.2752 12.0419 22.6092C12.0417 22.5706 12.0415 22.532 12.0412 22.4923C12.0405 22.3651 12.0401 22.2378 12.0398 22.1106C12.0397 22.0669 12.0396 22.0232 12.0394 21.9781C12.0387 21.7466 12.0382 21.5151 12.038 21.2836C12.0377 21.0458 12.0365 20.8081 12.0351 20.5703C12.0342 20.3863 12.0339 20.2024 12.0338 20.0184C12.0337 19.9308 12.0333 19.8432 12.0326 19.7557C12.027 18.9528 12.1056 18.2504 12.6629 17.6227C13.232 17.0764 13.8749 16.882 14.6474 16.8885C14.6943 16.8885 14.7412 16.8885 14.7895 16.8884C14.9426 16.8885 15.0957 16.8893 15.2488 16.8901C15.3557 16.8903 15.4626 16.8904 15.5695 16.8905C15.8495 16.8909 16.1295 16.8919 16.4094 16.893C16.6957 16.894 16.9819 16.8944 17.2682 16.895C17.8288 16.896 18.3894 16.8977 18.95 16.8998C18.949 16.8548 18.9479 16.8097 18.9468 16.7633C18.9434 16.5928 18.9409 16.4224 18.939 16.2519C18.938 16.1788 18.9367 16.1056 18.9349 16.0325C18.9153 15.1899 19.1105 14.4512 19.6938 13.8155C20.2659 13.2691 20.9688 13.0346 21.7492 13.0353ZM20.675 14.9998C20.2614 15.5962 20.45 16.0716 20.45 16.8998C22.8095 16.8998 25.169 16.8998 27.6 16.8998C27.6605 15.7831 27.6605 15.7831 27.2 14.8498C26.9645 14.6628 26.7386 14.5444 26.4341 14.5421C26.368 14.5415 26.368 14.5415 26.3006 14.5408C26.2523 14.5406 26.2041 14.5404 26.1544 14.5402C26.1035 14.5398 26.0526 14.5394 26.0001 14.539C25.8313 14.5377 25.6624 14.5369 25.4936 14.5362C25.407 14.5358 25.407 14.5358 25.3187 14.5354C25.013 14.534 24.7074 14.5331 24.4018 14.5323C24.1491 14.5317 23.8965 14.5303 23.6439 14.5282C23.3386 14.5258 23.0334 14.5245 22.7282 14.5242C22.6121 14.5238 22.4959 14.5231 22.3798 14.5219C22.2168 14.5203 22.0539 14.5203 21.8909 14.5207C21.8434 14.5198 21.7959 14.519 21.7469 14.5182C21.3151 14.5222 20.9487 14.6552 20.675 14.9998ZM13.7344 18.7248C13.6975 18.7689 13.6975 18.7689 13.66 18.8139C13.5288 19.0019 13.5423 19.1962 13.5419 19.4155C13.5417 19.4526 13.5415 19.4897 13.5412 19.5279C13.5405 19.6507 13.5401 19.7734 13.5398 19.8961C13.5396 19.9815 13.5393 20.0669 13.539 20.1523C13.5385 20.3314 13.5382 20.5105 13.538 20.6896C13.5377 20.9187 13.5365 21.1479 13.5351 21.377C13.5342 21.5535 13.5339 21.7299 13.5338 21.9063C13.5337 21.9908 13.5333 22.0752 13.5326 22.1597C13.5318 22.2781 13.5319 22.3964 13.5322 22.5147C13.5315 22.5668 13.5315 22.5668 13.5308 22.6198C13.5331 22.8879 13.602 23.0776 13.7695 23.2864C14.036 23.522 14.3358 23.6235 14.6691 23.7364C14.7629 23.7692 14.8567 23.8021 14.9505 23.8349C15.0502 23.8697 15.15 23.9041 15.2499 23.9383C15.4587 24.0099 15.6671 24.0826 15.8754 24.1555C16.0896 24.2303 16.3037 24.3051 16.518 24.3795C17.1487 24.5986 17.7774 24.8231 18.4055 25.0493C18.6758 25.1466 18.9462 25.2435 19.2166 25.3405C19.4983 25.4415 19.78 25.5426 20.0616 25.644C20.2513 25.7123 20.4411 25.7804 20.631 25.8483C20.6968 25.8719 20.7626 25.8955 20.8283 25.9193C20.9153 25.9507 21.0024 25.9818 21.0895 26.0129C21.1604 26.0384 21.1604 26.0384 21.2327 26.0644C21.3535 26.1071 21.3535 26.1071 21.5 26.0998C21.59 25.9902 21.59 25.9902 21.6781 25.8498C22.1097 25.2375 22.748 24.8691 23.4795 24.7235C24.3737 24.5995 25.1578 24.802 25.8766 25.3455C26.1386 25.5648 26.3267 25.8063 26.5 26.0998C26.7307 26.0682 26.9418 26.0075 27.1602 25.9291C27.2125 25.9107 27.2125 25.9107 27.2658 25.8919C27.3815 25.851 27.497 25.8098 27.6125 25.7686C27.6954 25.7392 27.7783 25.7099 27.8611 25.6805C28.0804 25.6028 28.2996 25.5248 28.5187 25.4466C28.6457 25.4014 28.7727 25.3562 28.8997 25.311C29.417 25.1269 29.9341 24.942 30.4511 24.7569C30.7237 24.6592 30.9963 24.5618 31.269 24.4643C31.5089 24.3786 31.7489 24.2927 31.9888 24.2068C32.1054 24.1651 32.2219 24.1235 32.3385 24.0818C32.6498 23.9706 32.961 23.8588 33.2718 23.7462C33.3856 23.705 33.4996 23.6644 33.6137 23.6239C33.6715 23.6028 33.7293 23.5817 33.7889 23.56C33.8356 23.5432 33.8823 23.5264 33.9305 23.5091C34.1374 23.4066 34.2785 23.2435 34.4 23.0498C34.4584 22.8746 34.4578 22.7165 34.4581 22.5341C34.4583 22.4971 34.4586 22.46 34.4588 22.4218C34.4595 22.299 34.4599 22.1763 34.4602 22.0535C34.4605 21.9682 34.4607 21.8828 34.461 21.7974C34.4616 21.6183 34.4618 21.4392 34.462 21.2601C34.4623 21.0309 34.4635 20.8018 34.4649 20.5726C34.4658 20.3962 34.4661 20.2198 34.4662 20.0434C34.4663 19.9589 34.4667 19.8744 34.4674 19.79C34.4683 19.6716 34.4682 19.5533 34.4678 19.4349C34.4683 19.4002 34.4688 19.3656 34.4692 19.3298C34.4669 19.0587 34.3988 18.857 34.2141 18.6567C34.1847 18.6328 34.1553 18.6088 34.125 18.5842C34.0956 18.5597 34.0662 18.5351 34.0359 18.5098C33.8559 18.3842 33.6886 18.3935 33.4763 18.3933C33.4265 18.3931 33.4265 18.3931 33.3758 18.393C33.2638 18.3927 33.1518 18.3927 33.0399 18.3928C32.9591 18.3927 32.8784 18.3925 32.7976 18.3924C32.5751 18.392 32.3525 18.3919 32.13 18.3918C31.8902 18.3917 31.6504 18.3914 31.4106 18.391C30.886 18.3903 30.3614 18.39 29.8369 18.3898C29.5095 18.3897 29.1821 18.3895 28.8547 18.3893C27.9487 18.3886 27.0427 18.3881 26.1367 18.388C26.0787 18.3879 26.0206 18.3879 25.9609 18.3879C25.9027 18.3879 25.8446 18.3879 25.7847 18.3879C25.6668 18.3879 25.549 18.3878 25.4311 18.3878C25.3727 18.3878 25.3142 18.3878 25.254 18.3878C24.3066 18.3876 23.3591 18.3867 22.4116 18.3856C21.4395 18.3844 20.4673 18.3837 19.4952 18.3837C18.9491 18.3836 18.403 18.3834 17.857 18.3824C17.3921 18.3817 16.9271 18.3814 16.4622 18.3818C16.2249 18.382 15.9876 18.382 15.7503 18.3813C15.5331 18.3806 15.316 18.3807 15.0988 18.3813C15.0202 18.3814 14.9416 18.3813 14.8629 18.3808C14.7561 18.3803 14.6494 18.3806 14.5426 18.3812C14.4536 18.3812 14.4536 18.3812 14.3628 18.3811C14.0968 18.4117 13.9026 18.5181 13.7344 18.7248ZM14.7 25.2998C14.6942 26.2773 14.6898 27.2548 14.6871 28.2323C14.6858 28.6862 14.684 29.1401 14.6811 29.594C14.6787 29.9896 14.677 30.3853 14.6765 30.781C14.6762 30.9904 14.6754 31.1999 14.6736 31.4093C14.6719 31.6066 14.6714 31.8039 14.6717 32.0013C14.6717 32.0735 14.6712 32.1457 14.6702 32.218C14.6635 32.7198 14.6635 32.7198 14.8621 33.1688C15.2123 33.4919 15.5428 33.4784 16.0003 33.4752C16.0721 33.4755 16.144 33.4758 16.2158 33.4762C16.4127 33.477 16.6096 33.4766 16.8065 33.476C17.0191 33.4755 17.2316 33.4762 17.4442 33.4768C17.8604 33.4777 18.2766 33.4775 18.6928 33.4769C19.031 33.4764 19.3693 33.4764 19.7076 33.4766C19.7798 33.4766 19.7798 33.4766 19.8534 33.4767C19.9512 33.4768 20.049 33.4768 20.1468 33.4769C21.0639 33.4775 21.981 33.4768 22.8981 33.4757C23.685 33.4748 24.4719 33.475 25.2587 33.4759C26.1725 33.477 27.0863 33.4774 28.0001 33.4768C28.0976 33.4767 28.195 33.4767 28.2925 33.4766C28.3404 33.4766 28.3883 33.4765 28.4377 33.4765C28.7756 33.4763 29.1134 33.4766 29.4513 33.4771C29.863 33.4777 30.2747 33.4775 30.6865 33.4764C30.8965 33.4759 31.1066 33.4757 31.3167 33.4764C31.509 33.477 31.7013 33.4766 31.8936 33.4756C31.9632 33.4753 32.0327 33.4755 32.1023 33.4759C32.532 33.4787 32.8134 33.4681 33.1379 33.1688C33.3579 32.8409 33.3335 32.4931 33.3284 32.1114C33.3283 32.0369 33.3284 31.9625 33.3285 31.888C33.3286 31.6869 33.3271 31.4858 33.3254 31.2847C33.3238 31.0742 33.3236 30.8636 33.3233 30.6531C33.3226 30.2549 33.3205 29.8566 33.318 29.4584C33.3152 29.0048 33.3138 28.5513 33.3126 28.0977C33.31 27.1651 33.3056 26.2324 33.3 25.2998C33.0881 25.3701 32.8762 25.4405 32.6643 25.511C32.6052 25.5306 32.5461 25.5502 32.4852 25.5704C31.8825 25.7708 31.2848 25.9842 30.6875 26.1998C30.5741 26.2407 30.4606 26.2815 30.3471 26.3223C29.998 26.4479 29.649 26.5738 29.3 26.6998C29.2421 26.7207 29.1842 26.7416 29.1245 26.7632C28.3995 27.0249 27.6747 27.2872 26.95 27.5498C26.9404 27.6111 26.9308 27.6724 26.9209 27.7355C26.9078 27.817 26.8948 27.8984 26.8816 27.9799C26.8723 28.0403 26.8723 28.0403 26.8627 28.1019C26.7393 28.8619 26.3554 29.501 25.7326 29.9625C24.9997 30.445 24.2116 30.6023 23.35 30.4436C22.6062 30.2675 21.9665 29.845 21.55 29.1998C21.2379 28.6758 21.1233 28.1477 21.05 27.5498C20.264 27.2678 19.4779 26.986 18.6917 26.7044C18.4979 26.6349 18.3041 26.5655 18.1103 26.496C17.7642 26.3719 17.418 26.2479 17.0718 26.124C16.9524 26.0813 16.833 26.0385 16.7136 25.9957C16.5448 25.9352 16.376 25.8748 16.2072 25.8145C16.1349 25.7885 16.1349 25.7885 16.0612 25.762C15.6098 25.6009 15.155 25.4504 14.7 25.2998ZM22.95 26.5498C22.6288 26.9709 22.5055 27.3186 22.55 27.8498C22.6117 28.2548 22.8515 28.5313 23.15 28.7998C23.5275 29.0515 23.9234 29.1003 24.365 29.0321C24.7443 28.9317 25.0585 28.6621 25.2742 28.3385C25.4601 27.9789 25.5307 27.5681 25.4123 27.1744C25.3638 27.0621 25.31 26.9564 25.25 26.8498C25.2222 26.7972 25.1943 26.7446 25.1656 26.6905C24.9494 26.4275 24.6366 26.2158 24.3 26.1498C23.8017 26.1034 23.3132 26.1765 22.95 26.5498Z" fill="#3736AE"/>
<path d="M22.2161 20.8419C22.2586 20.8416 22.301 20.8414 22.3448 20.8411C22.4853 20.8404 22.6259 20.84 22.7665 20.8398C22.8642 20.8395 22.962 20.8392 23.0597 20.8389C23.2647 20.8384 23.4697 20.8381 23.6746 20.8379C23.9371 20.8376 24.1995 20.8364 24.462 20.835C24.6639 20.8341 24.8658 20.8338 25.0677 20.8337C25.1644 20.8336 25.2612 20.8332 25.3579 20.8325C25.4934 20.8317 25.6289 20.8318 25.7643 20.8321C25.8042 20.8316 25.844 20.8312 25.885 20.8307C26.1266 20.8325 26.2901 20.8677 26.4999 20.9999C26.7222 21.2462 26.7675 21.3975 26.7642 21.7228C26.7381 21.955 26.617 22.091 26.4468 22.2405C26.2341 22.3709 26.0246 22.3576 25.7837 22.358C25.7413 22.3582 25.6988 22.3585 25.6551 22.3587C25.5145 22.3594 25.3739 22.3598 25.2333 22.3601C25.1356 22.3604 25.0379 22.3606 24.9402 22.3609C24.7352 22.3615 24.5302 22.3617 24.3252 22.3619C24.0627 22.3622 23.8003 22.3634 23.5379 22.3648C23.336 22.3657 23.1341 22.366 22.9321 22.3661C22.8354 22.3662 22.7387 22.3666 22.6419 22.3673C22.5064 22.3681 22.371 22.3681 22.2355 22.3677C22.1957 22.3682 22.1558 22.3687 22.1148 22.3691C21.8733 22.3673 21.7098 22.3321 21.4999 22.1999C21.2776 21.9536 21.2324 21.8023 21.2357 21.4771C21.2617 21.2448 21.3829 21.1088 21.553 20.9593C21.7657 20.8289 21.9753 20.8422 22.2161 20.8419Z" fill="#F98A17"/>
</svg>
