<svg width="1440" height="1023" viewBox="0 0 1440 1023" fill="none" xmlns="http://www.w3.org/2000/svg">
<g clip-path="url(#clip0_1435_3911)">
<rect width="1440" height="1023" fill="url(#paint0_linear_1435_3911)"/>
<g opacity="0.1">
<line x1="108.5" y1="-2.18557e-08" x2="108.5" y2="1024" stroke="black"/>
<line x1="219.864" y1="-2.18557e-08" x2="219.864" y2="1024" stroke="black"/>
<line x1="331.227" y1="-2.18557e-08" x2="331.227" y2="1024" stroke="black"/>
<line x1="442.591" y1="-2.18557e-08" x2="442.591" y2="1024" stroke="black"/>
<line x1="553.955" y1="-2.18557e-08" x2="553.955" y2="1024" stroke="black"/>
<line x1="665.318" y1="-2.18557e-08" x2="665.318" y2="1024" stroke="black"/>
<line x1="776.682" y1="-2.18557e-08" x2="776.682" y2="1024" stroke="black"/>
<line x1="888.045" y1="-2.18557e-08" x2="888.046" y2="1024" stroke="black"/>
<line x1="999.409" y1="-2.18557e-08" x2="999.409" y2="1024" stroke="black"/>
<line x1="1110.77" y1="-2.18557e-08" x2="1110.77" y2="1024" stroke="black"/>
<line x1="1222.14" y1="-2.18557e-08" x2="1222.14" y2="1024" stroke="black"/>
<line x1="1333.5" y1="-2.18557e-08" x2="1333.5" y2="1024" stroke="black"/>
<line x1="1440" y1="97.75" y2="97.75" stroke="black"/>
<line x1="1440" y1="200.583" y2="200.583" stroke="black"/>
<line x1="1440" y1="303.417" y2="303.417" stroke="black"/>
<line x1="1440" y1="406.25" y2="406.25" stroke="black"/>
<line x1="1440" y1="509.083" y2="509.083" stroke="black"/>
<line x1="1440" y1="611.917" y2="611.917" stroke="black"/>
<line x1="1440" y1="714.75" y2="714.75" stroke="black"/>
<line x1="1440" y1="817.583" y2="817.583" stroke="black"/>
<line x1="1440" y1="920.417" y2="920.417" stroke="black"/>
<line x1="1232" y1="1023.25" x2="208" y2="1023.25" stroke="black"/>
</g>
<rect width="1440" height="1024" fill="url(#paint1_linear_1435_3911)"/>
</g>
<defs>
<linearGradient id="paint0_linear_1435_3911" x1="720" y1="-12" x2="720" y2="1023" gradientUnits="userSpaceOnUse">
<stop offset="0.197565" stop-color="white" stop-opacity="0.7"/>
<stop offset="0.509615" stop-color="white" stop-opacity="0"/>
<stop offset="0.860923" stop-color="white" stop-opacity="0.7"/>
</linearGradient>
<linearGradient id="paint1_linear_1435_3911" x1="720" y1="0" x2="720" y2="1024" gradientUnits="userSpaceOnUse">
<stop offset="0.227281" stop-color="#F1F1FF" stop-opacity="0.7"/>
<stop offset="0.504808" stop-color="white" stop-opacity="0.5"/>
<stop offset="0.75658" stop-color="#F1F1FF" stop-opacity="0.9"/>
</linearGradient>
<clipPath id="clip0_1435_3911">
<rect width="1440" height="1023" fill="white"/>
</clipPath>
</defs>
</svg>
