<svg width="154" height="154" viewBox="0 0 154 154" fill="none" xmlns="http://www.w3.org/2000/svg">
<g filter="url(#filter0_d_1440_1314)">
<rect x="28.8" y="9.60001" width="96" height="96" rx="48" fill="white"/>
<rect x="30.6" y="11.4" width="92.4" height="92.4" rx="46.2" stroke="white" stroke-width="3.6"/>
<path d="M63.9466 35.2319C64.0596 35.2315 64.1727 35.231 64.2892 35.2306C64.6009 35.2296 64.9127 35.2295 65.2245 35.2297C65.5615 35.2297 65.8986 35.2287 66.2356 35.2278C66.8953 35.2263 67.555 35.2257 68.2146 35.2256C68.7512 35.2256 69.2878 35.2252 69.8244 35.2246C71.348 35.2229 72.8715 35.2221 74.395 35.2222C74.477 35.2222 74.5591 35.2222 74.6436 35.2222C74.7668 35.2222 74.7668 35.2222 74.8925 35.2222C76.2228 35.2223 77.5531 35.2205 78.8834 35.2179C80.2514 35.2152 81.6194 35.2139 82.9874 35.2141C83.7546 35.2141 84.5218 35.2136 85.289 35.2116C85.9424 35.2099 86.5958 35.2095 87.2492 35.2107C87.582 35.2114 87.9148 35.2114 88.2477 35.2097C90.4214 35.1997 92.2539 35.3513 93.9156 36.9137C94.979 37.969 95.6103 39.4461 95.6361 40.9406C95.6367 41.1843 95.6362 41.428 95.6349 41.6717C95.6348 41.8067 95.6349 41.9417 95.635 42.0766C95.635 42.4407 95.6339 42.8048 95.6326 43.1689C95.6314 43.5503 95.6313 43.9316 95.6311 44.313C95.6305 45.0341 95.629 45.7553 95.6271 46.4764C95.625 47.2978 95.624 48.1192 95.623 48.9407C95.6211 50.6294 95.6178 52.3182 95.6136 54.007C95.717 54.0207 95.8204 54.0345 95.927 54.0487C96.8276 54.1853 97.5463 54.7504 98.1448 55.4132C99.0294 56.6171 99.1245 57.8673 99.1187 59.3106C99.1191 59.4739 99.1196 59.6373 99.1202 59.8007C99.1215 60.2413 99.121 60.682 99.1201 61.1227C99.1194 61.5859 99.1201 62.0491 99.1205 62.5123C99.121 63.2901 99.1204 64.0679 99.119 64.8457C99.1175 65.7421 99.118 66.6384 99.1195 67.5348C99.1208 68.3072 99.121 69.0796 99.1203 69.852C99.1198 70.3121 99.1197 70.7722 99.1207 71.2323C99.1215 71.6652 99.1209 72.0981 99.1193 72.531C99.1189 72.6889 99.119 72.8468 99.1197 73.0047C99.1265 74.9056 98.759 76.5851 97.3948 78.007C96.0207 79.3295 94.4398 79.7392 92.5772 79.7308C92.4341 79.7312 92.2911 79.7317 92.148 79.7323C91.7578 79.7337 91.3675 79.7333 90.9773 79.7326C90.5553 79.7322 90.1333 79.7333 89.7114 79.7343C88.8857 79.7359 88.0601 79.736 87.2345 79.7355C86.5631 79.7351 85.8917 79.7352 85.2203 79.7357C85.0767 79.7359 85.0767 79.7359 84.9303 79.736C84.7358 79.7361 84.5413 79.7362 84.3469 79.7364C82.5249 79.7377 80.7028 79.7372 78.8808 79.7361C77.2159 79.7352 75.551 79.7364 73.8861 79.7386C72.1744 79.7409 70.4627 79.7418 68.751 79.7412C67.7909 79.7409 66.8308 79.7411 65.8706 79.7427C65.0532 79.7441 64.2359 79.7441 63.4185 79.7425C63.0019 79.7417 62.5854 79.7415 62.1688 79.7429C61.7866 79.7443 61.4044 79.7438 61.0222 79.742C60.8848 79.7416 60.7474 79.7419 60.61 79.7429C58.804 79.7549 57.218 79.2344 55.8933 77.9707C54.5363 76.4399 54.2408 74.7889 54.2441 72.8048C54.2437 72.6411 54.2432 72.4775 54.2427 72.3138C54.2414 71.872 54.2413 71.4302 54.2416 70.9883C54.2417 70.6184 54.2412 70.2484 54.2408 69.8785C54.2397 69.0052 54.2397 68.132 54.2403 67.2587C54.2408 66.3602 54.2397 65.4617 54.2377 64.5631C54.236 63.7893 54.2355 63.0156 54.2358 62.2418C54.2359 61.7807 54.2357 61.3196 54.2344 60.8585C54.2332 60.4247 54.2334 59.9909 54.2346 59.5571C54.2348 59.3987 54.2346 59.2403 54.2338 59.0819C54.2271 57.6104 54.4001 56.3072 55.4256 55.1715C56.1216 54.5105 56.7879 54.1336 57.7386 54.007C57.7383 53.9383 57.7379 53.8696 57.7376 53.7989C57.7292 52.1217 57.7231 50.4446 57.7192 48.7675C57.7172 47.9564 57.7146 47.1453 57.7103 46.3342C57.7066 45.6267 57.7041 44.9191 57.7033 44.2115C57.7028 43.8374 57.7017 43.4634 57.699 43.0893C57.6964 42.736 57.6956 42.3826 57.6962 42.0293C57.696 41.8403 57.694 41.6514 57.6919 41.4625C57.6998 39.6803 58.2644 38.0946 59.5305 36.8189C60.777 35.6702 62.289 35.2273 63.9466 35.2319ZM61.0902 39.3175C60.5612 40.1298 60.4921 40.9127 60.4847 41.8636C60.4824 41.998 60.4799 42.1324 60.4773 42.2668C60.4694 42.7046 60.4655 43.1424 60.4617 43.5802C60.4602 43.7317 60.4587 43.8833 60.4571 44.0348C60.45 44.7464 60.4446 45.458 60.4415 46.1696C60.4378 46.9884 60.428 47.8069 60.4128 48.6256C60.4015 49.2606 60.396 49.8954 60.3947 50.5305C60.3938 50.909 60.3905 51.2871 60.381 51.6655C60.277 53.1464 60.277 53.1464 60.6953 54.5019C61.038 54.8284 61.4153 55.0016 61.8593 55.1518C62.1778 55.2746 62.443 55.4704 62.7191 55.6681C62.8141 55.7317 62.8141 55.7317 62.911 55.7966C62.9628 55.8316 63.0147 55.8665 63.0681 55.9025C63.5261 56.21 63.9868 56.5132 64.4476 56.8165C64.5347 56.8739 64.6218 56.9313 64.7115 56.9904C64.9809 57.1678 65.2504 57.3452 65.5199 57.5226C67.5305 58.8462 67.5305 58.8462 68.4551 59.4641C69.2942 60.0243 70.138 60.5773 70.9808 61.132C73.0371 62.4853 73.0371 62.4853 73.9259 63.0809C73.9853 63.1207 74.0447 63.1605 74.1059 63.2015C74.3725 63.3802 74.6389 63.5593 74.9048 63.739C75.7132 64.3249 75.7132 64.3249 76.6585 64.5538C76.7307 64.5567 76.8028 64.5596 76.8771 64.5626C77.6849 64.3947 78.4136 63.7648 79.0843 63.3116C79.3112 63.1592 79.5383 63.0071 79.7655 62.855C79.8256 62.8147 79.8858 62.7743 79.9478 62.7328C80.6961 62.2318 81.4489 61.7377 82.2015 61.2433C82.3507 61.1452 82.4999 61.0472 82.6491 60.9491C82.8809 60.7967 83.1128 60.6443 83.3447 60.492C84.2333 59.9079 85.1213 59.323 86.0091 58.7379C86.1867 58.6209 86.3643 58.5039 86.542 58.3869C87.4 57.8217 88.2575 57.2557 89.1119 56.685C89.6911 56.2984 90.273 55.9159 90.8555 55.5344C91.0349 55.4169 91.2141 55.2992 91.3934 55.1816C91.5093 55.1056 91.6253 55.0296 91.7413 54.9536C91.8438 54.8864 91.9463 54.8192 92.0519 54.75C92.3323 54.5695 92.3324 54.5695 92.5805 54.4519C92.8244 54.3075 92.8244 54.3075 92.8601 54.0415C92.8603 53.9416 92.8604 53.8417 92.8606 53.7388C92.8619 53.6241 92.8633 53.5093 92.8646 53.3911C92.8637 53.2638 92.8628 53.1364 92.8618 53.0091C92.8624 52.8751 92.8632 52.7411 92.8642 52.6071C92.8664 52.2427 92.8655 51.8783 92.8641 51.5139C92.8629 51.1319 92.864 50.75 92.8647 50.368C92.8656 49.7256 92.8644 49.0832 92.8622 48.4408C92.8597 47.7003 92.8605 46.9599 92.8631 46.2194C92.8652 45.5826 92.8655 44.9458 92.8643 44.309C92.8635 43.9292 92.8634 43.5494 92.865 43.1695C92.8664 42.8115 92.8654 42.4535 92.8627 42.0954C92.8621 41.9648 92.8622 41.8342 92.8633 41.7036C92.8704 40.724 92.7124 39.906 92.1284 39.1007C91.4622 38.4771 90.8282 38.0588 89.8926 38.0569C89.7493 38.0563 89.7493 38.0563 89.6031 38.0556C89.4459 38.0556 89.4459 38.0556 89.2856 38.0557C89.1741 38.0553 89.0627 38.055 88.9478 38.0546C88.6384 38.0538 88.3289 38.0533 88.0195 38.0531C87.6857 38.0527 87.352 38.0518 87.0183 38.051C86.2122 38.0492 85.4062 38.0482 84.6002 38.0474C84.2205 38.047 83.8408 38.0465 83.461 38.046C82.1986 38.0444 80.9361 38.043 79.6736 38.0423C79.3461 38.0422 79.0185 38.042 78.6909 38.0418C78.5688 38.0417 78.5688 38.0417 78.4443 38.0417C77.1257 38.0409 75.8072 38.0385 74.4887 38.0355C73.1346 38.0324 71.7805 38.0307 70.4263 38.0304C69.6662 38.0302 68.9061 38.0293 68.146 38.0269C67.4986 38.0249 66.8512 38.0242 66.2038 38.0251C65.8737 38.0255 65.5436 38.0253 65.2135 38.0235C64.855 38.0215 64.4966 38.0225 64.1381 38.0237C63.9828 38.0222 63.9828 38.0222 63.8244 38.0206C62.626 38.0306 61.9036 38.4814 61.0902 39.3175ZM57.3226 57.3468C57.0665 57.736 57.0701 58.0474 57.0686 58.504C57.0682 58.5709 57.0679 58.6378 57.0675 58.7067C57.0665 58.9314 57.0661 59.1562 57.0658 59.3809C57.0652 59.5419 57.0645 59.7028 57.0639 59.8637C57.0619 60.3929 57.0609 60.9221 57.06 61.4513C57.0596 61.6336 57.0592 61.8159 57.0589 61.9982C57.0571 62.8552 57.0557 63.7121 57.055 64.569C57.054 65.5571 57.0516 66.5452 57.0478 67.5333C57.0449 68.2975 57.0436 69.0618 57.0433 69.8261C57.043 70.2822 57.0422 70.7384 57.0398 71.1945C57.0376 71.6242 57.0373 72.0539 57.0382 72.4836C57.0383 72.6407 57.0377 72.7978 57.0364 72.9549C57.0267 74.207 57.1665 75.1802 58.0653 76.1162C58.6532 76.6229 59.3157 76.8933 60.0877 76.8945C60.267 76.8952 60.267 76.8952 60.4498 76.8958C60.5832 76.8958 60.7166 76.8958 60.85 76.8958C60.9911 76.8961 61.1322 76.8964 61.2733 76.8968C61.6621 76.8977 62.0509 76.8981 62.4396 76.8983C62.8586 76.8987 63.2775 76.8996 63.6964 76.9004C64.7087 76.9023 65.7209 76.9032 66.7332 76.9041C67.2098 76.9045 67.6864 76.905 68.163 76.9055C69.7473 76.9071 71.3315 76.9084 72.9158 76.9091C73.327 76.9093 73.7382 76.9095 74.1495 76.9096C74.2517 76.9097 74.3539 76.9097 74.4592 76.9098C76.1148 76.9105 77.7704 76.9129 79.4259 76.916C81.1254 76.9191 82.8249 76.9208 84.5244 76.9211C85.4787 76.9213 86.433 76.9221 87.3873 76.9245C88.2001 76.9265 89.0128 76.9273 89.8256 76.9264C90.2402 76.9259 90.6548 76.9261 91.0694 76.9279C91.4493 76.9296 91.8292 76.9295 92.2091 76.928C92.3462 76.9278 92.4833 76.9282 92.6204 76.9293C93.817 76.9384 94.6246 76.7322 95.5008 75.8987C96.0816 75.2365 96.281 74.5456 96.283 73.683C96.2833 73.6157 96.2836 73.5484 96.2839 73.479C96.2847 73.2535 96.2848 73.028 96.285 72.8024C96.2854 72.6407 96.2859 72.479 96.2864 72.3173C96.2876 71.878 96.2882 71.4387 96.2886 70.9994C96.2889 70.7249 96.2893 70.4505 96.2897 70.176C96.291 69.3174 96.2919 68.4587 96.2922 67.6C96.2927 66.6087 96.2943 65.6175 96.297 64.6262C96.2991 63.8599 96.3 63.0937 96.3001 62.3274C96.3002 61.8698 96.3008 61.4121 96.3025 60.9545C96.304 60.524 96.3042 60.0936 96.3034 59.6631C96.3033 59.5052 96.3037 59.3473 96.3046 59.1894C96.3058 58.9737 96.3053 58.758 96.3043 58.5422C96.3045 58.3612 96.3045 58.3612 96.3047 58.1766C96.2605 57.7629 96.1328 57.4466 95.8513 57.1373C95.4026 56.7898 95.1055 56.575 94.5185 56.5902C93.736 56.7404 92.9871 57.3672 92.34 57.8112C92.2556 57.8685 92.1711 57.9258 92.0841 57.9849C91.8169 58.1663 91.5502 58.3483 91.2835 58.5304C89.2937 59.8871 89.2937 59.8871 88.3084 60.4931C87.4286 61.0377 86.5784 61.6282 85.723 62.2101C83.7567 63.5476 83.7567 63.5476 82.7493 64.1684C82.2986 64.4471 81.8566 64.7372 81.4171 65.0332C81.3517 65.0772 81.2864 65.1211 81.2191 65.1664C80.9537 65.3454 80.6885 65.5246 80.4237 65.7044C78.8713 66.7573 77.5399 67.4881 75.6108 67.1744C75.022 67.019 74.5313 66.7608 74.0233 66.4358C73.926 66.3742 73.926 66.3742 73.8267 66.3115C73.1331 65.8703 72.4496 65.414 71.7671 64.956C71.3721 64.6909 70.9765 64.4266 70.5809 64.1624C70.4981 64.107 70.4153 64.0517 70.3299 63.9947C69.1672 63.2185 67.9989 62.4508 66.831 61.6824C66.0179 61.1475 65.2058 60.6112 64.3964 60.0707C63.6662 59.5833 62.9349 59.0975 62.2029 58.6129C62.0187 58.4909 61.8346 58.3686 61.6507 58.2462C61.3806 58.0663 61.11 57.8872 60.8393 57.7083C60.7583 57.6541 60.6774 57.6 60.5939 57.5443C59.426 56.7749 58.4265 56.158 57.3226 57.3468Z" fill="url(#paint0_linear_1440_1314)"/>
<path d="M80.3499 41.9367C81.2247 42.7594 81.9365 43.89 82.0364 45.1172C82.0753 46.6109 81.9328 47.7132 81.1189 49.0042C80.9727 49.2098 80.9727 49.2098 80.9885 49.4132C81.1408 49.5431 81.298 49.6671 81.4573 49.7882C82.6057 50.7126 83.3247 51.9024 83.6135 53.3507C83.6522 53.7482 83.6572 54.141 83.6545 54.5402C83.6564 54.641 83.6583 54.7419 83.6602 54.8458C83.6597 55.6138 83.5189 56.1198 83.0159 56.7023C82.8941 56.8067 82.8941 56.8067 82.7698 56.9132C82.6944 56.979 82.619 57.0447 82.5413 57.1125C79.9429 58.7649 74.2657 57.9554 71.4341 57.3688C70.7257 57.1716 70.2732 56.7793 69.9143 56.1475C69.4223 55.1173 69.6207 53.3733 69.9897 52.3191C70.543 51.0636 71.3434 50.1147 72.4573 49.3195C72.4143 49.2559 72.3712 49.1923 72.3269 49.1269C71.4022 47.7243 71.1258 46.3842 71.3604 44.7127C71.6323 43.4012 72.5021 42.2546 73.5588 41.4621C75.7284 40.0403 78.4043 40.2753 80.3499 41.9367ZM74.5198 44.4445C74.1263 44.9695 74.0157 45.5775 74.051 46.2257C74.1996 46.9433 74.5192 47.534 75.0823 48.007C75.7542 48.4465 76.3901 48.652 77.1916 48.5109C77.937 48.3172 78.4911 47.8863 78.926 47.257C79.2824 46.6057 79.3872 45.9186 79.219 45.1945C78.9752 44.4888 78.4329 43.891 77.7717 43.548C76.453 43.0339 75.4497 43.4226 74.5198 44.4445ZM72.885 52.7765C72.5927 53.3612 72.4039 54.0053 72.4573 54.6632C74.6024 55.2194 78.8364 55.6924 80.8948 54.6632C80.8535 53.5596 80.5679 52.8126 79.7698 52.0382C78.9185 51.2485 77.7907 51.2411 76.6877 51.2472C76.5088 51.2444 76.5088 51.2444 76.3263 51.2415C74.8202 51.2423 73.8569 51.6302 72.885 52.7765Z" fill="#F98A16"/>
</g>
<defs>
<filter id="filter0_d_1440_1314" x="1.90735e-06" y="5.72205e-06" width="153.6" height="153.6" filterUnits="userSpaceOnUse" color-interpolation-filters="sRGB">
<feFlood flood-opacity="0" result="BackgroundImageFix"/>
<feColorMatrix in="SourceAlpha" type="matrix" values="0 0 0 0 0 0 0 0 0 0 0 0 0 0 0 0 0 0 127 0" result="hardAlpha"/>
<feMorphology radius="9.6" operator="erode" in="SourceAlpha" result="effect1_dropShadow_1440_1314"/>
<feOffset dy="19.2"/>
<feGaussianBlur stdDeviation="19.2"/>
<feComposite in2="hardAlpha" operator="out"/>
<feColorMatrix type="matrix" values="0 0 0 0 0.0470588 0 0 0 0 0.0470588 0 0 0 0 0.0509804 0 0 0 0.2 0"/>
<feBlend mode="normal" in2="BackgroundImageFix" result="effect1_dropShadow_1440_1314"/>
<feBlend mode="normal" in="SourceGraphic" in2="effect1_dropShadow_1440_1314" result="shape"/>
</filter>
<linearGradient id="paint0_linear_1440_1314" x1="76.6773" y1="35.2093" x2="76.6773" y2="79.7437" gradientUnits="userSpaceOnUse">
<stop stop-color="#3736AE"/>
<stop offset="1" stop-color="#2D235D"/>
</linearGradient>
</defs>
</svg>
