<svg width="140" height="140" viewBox="0 0 140 140" fill="none" xmlns="http://www.w3.org/2000/svg">
<g filter="url(#filter0_d_1440_1317)">
<rect x="30" y="10" width="80" height="80" rx="40" fill="white"/>
<rect x="31.5" y="11.5" width="77" height="77" rx="38.5" stroke="white" stroke-width="3"/>
<path d="M66.4831 32.8678C66.5669 32.8673 66.6507 32.8667 66.7371 32.8662C67.0129 32.8647 67.2886 32.8644 67.5644 32.8642C67.7573 32.8637 67.9501 32.8632 68.143 32.8627C68.5469 32.8617 68.9509 32.8614 69.3548 32.8615C69.8704 32.8615 70.3859 32.8594 70.9014 32.8567C71.2998 32.855 71.6981 32.8547 72.0964 32.8547C72.2864 32.8546 72.4764 32.8539 72.6663 32.8527C74.577 32.8416 74.577 32.8416 75.3907 33.203C75.4673 33.2369 75.544 33.2709 75.623 33.3059C76.6169 33.7727 77.267 34.6095 77.6654 35.6094C77.9115 36.3271 77.9281 36.9721 77.9102 37.7196C77.9086 37.8354 77.9072 37.9512 77.9059 38.067C77.9025 38.3468 77.8972 38.6264 77.8907 38.9061C77.9826 38.9056 78.0744 38.9051 78.1691 38.9045C79.038 38.8998 79.9068 38.8963 80.7757 38.894C81.2224 38.8927 81.669 38.8911 82.1156 38.8884C82.5472 38.8859 82.9788 38.8845 83.4104 38.8839C83.5744 38.8834 83.7385 38.8826 83.9026 38.8813C85.3587 38.8705 86.6037 38.9833 87.7088 40.0328C88.6376 41.0613 88.7084 42.2385 88.7031 43.5521C88.7032 43.6904 88.7034 43.8287 88.7037 43.967C88.7041 44.2554 88.7036 44.5437 88.7025 44.8321C88.7011 45.1993 88.7019 45.5665 88.7033 45.9337C88.7042 46.2188 88.7039 46.5039 88.7033 46.7891C88.7031 46.9244 88.7033 47.0597 88.7039 47.1949C88.7082 48.5671 88.4929 49.5791 87.5709 50.6413C87.4219 50.7811 87.4219 50.7811 87.1819 50.9135C86.9327 51.0717 86.9327 51.0717 86.8949 51.331C86.8951 51.4246 86.8953 51.5183 86.8954 51.6148C86.8949 51.6671 86.8943 51.7194 86.8937 51.7733C86.8924 51.9485 86.8945 52.1235 86.8965 52.2988C86.8963 52.4244 86.8958 52.5501 86.8951 52.6757C86.8942 52.9464 86.8947 53.217 86.8963 53.4877C86.8989 53.9162 86.8982 54.3447 86.897 54.7732C86.8955 55.4518 86.8962 56.1303 86.8979 56.8088C86.9008 58.0219 86.9011 59.235 86.8991 60.4481C86.8984 60.8734 86.8991 61.2988 86.9008 61.7241C86.9017 61.9898 86.9016 62.2555 86.9013 62.5212C86.9014 62.6436 86.9018 62.7661 86.9027 62.8886C86.9117 64.1514 86.6982 65.1302 85.8185 66.0628C84.9058 66.9452 83.9045 67.1576 82.6629 67.1489C82.5487 67.1493 82.4345 67.1498 82.3202 67.1504C82.0092 67.1517 81.6981 67.1511 81.387 67.1501C81.0505 67.1494 80.7139 67.1505 80.3773 67.1513C79.7191 67.1527 79.0608 67.1524 78.4026 67.1515C77.8674 67.1508 77.3322 67.1507 76.797 67.151C76.7206 67.1511 76.6443 67.1511 76.5657 67.1512C76.4106 67.1513 76.2555 67.1514 76.1004 67.1515C74.648 67.1524 73.1956 67.1514 71.7432 67.1497C70.4984 67.1483 69.2536 67.1485 68.0088 67.15C66.5614 67.1516 65.114 67.1523 63.6666 67.1513C63.5121 67.1512 63.3576 67.1511 63.2031 67.151C63.1271 67.151 63.0511 67.1509 62.9728 67.1509C62.4386 67.1506 61.9043 67.1511 61.3701 67.1518C60.7186 67.1527 60.067 67.1525 59.4155 67.1508C59.0834 67.15 58.7513 67.1496 58.4192 67.1507C58.1147 67.1516 57.8101 67.1511 57.5056 67.1494C57.3959 67.1491 57.2863 67.1493 57.1767 67.15C55.9281 67.1581 54.9885 66.8397 54.0772 65.9813C53.408 65.2744 53.1132 64.4174 53.1174 63.4516C53.1176 63.3727 53.1176 63.3727 53.1178 63.2922C53.1182 63.1165 53.1192 62.9409 53.1202 62.7652C53.1206 62.6391 53.1209 62.5129 53.1212 62.3867C53.122 62.1153 53.1228 61.8438 53.1238 61.5724C53.1252 61.1429 53.1254 60.7135 53.1252 60.2841C53.1252 60.2115 53.1251 60.139 53.1251 60.0643C53.125 59.841 53.1249 59.6177 53.1247 59.3944C53.1242 58.4699 53.1246 57.5454 53.1291 56.6209C53.1323 55.9463 53.1331 55.2718 53.1309 54.5972C53.1299 54.2403 53.1301 53.8836 53.1333 53.5268C53.1364 53.1911 53.1361 52.8556 53.1333 52.5199C53.1329 52.3969 53.1337 52.2739 53.1357 52.151C53.1639 51.485 53.1639 51.485 52.8915 50.9033C52.715 50.7659 52.5377 50.6572 52.3438 50.5467C51.6302 49.7715 51.3172 48.8677 51.3156 47.827C51.3152 47.7667 51.3148 47.7064 51.3144 47.6443C51.3133 47.4455 51.3127 47.2467 51.3123 47.0479C51.3121 46.9796 51.3119 46.9113 51.3116 46.841C51.3105 46.4792 51.3097 46.1175 51.3094 45.7557C51.309 45.3842 51.3071 45.0127 51.3049 44.6412C51.3034 44.3538 51.303 44.0663 51.3029 43.7788C51.3027 43.642 51.302 43.5052 51.301 43.3684C51.2922 42.1138 51.415 41.0163 52.2858 40.0356C53.1751 39.182 54.1796 38.8783 55.3866 38.8884C55.4599 38.8883 55.5331 38.8883 55.6086 38.8883C55.8479 38.8884 56.0871 38.8896 56.3263 38.8908C56.4934 38.8911 56.6604 38.8914 56.8274 38.8915C57.2649 38.8921 57.7023 38.8936 58.1398 38.8954C58.587 38.897 59.0343 38.8977 59.4816 38.8985C60.3575 38.9001 61.2335 38.9028 62.1094 38.9061C62.1078 38.8357 62.1062 38.7653 62.1045 38.6927C62.0991 38.4264 62.0952 38.1601 62.0923 37.8938C62.0907 37.7795 62.0886 37.6651 62.0858 37.5508C62.0551 36.2343 62.3602 35.0801 63.2715 34.0868C64.1655 33.2331 65.2638 32.8667 66.4831 32.8678ZM64.8047 35.9374C64.1585 36.8692 64.4532 37.6119 64.4532 38.9061C68.1399 38.9061 71.8266 38.9061 75.625 38.9061C75.7195 37.1613 75.7195 37.1613 75 35.703C74.632 35.4108 74.2791 35.2257 73.8034 35.2222C73.7 35.2212 73.7001 35.2212 73.5947 35.2202C73.5193 35.2198 73.4439 35.2195 73.3663 35.2192C73.2867 35.2185 73.2072 35.2179 73.1252 35.2172C72.8614 35.2153 72.5976 35.214 72.3337 35.2129C72.1985 35.2122 72.1985 35.2122 72.0605 35.2116C71.5829 35.2095 71.1053 35.208 70.6278 35.2069C70.233 35.2058 69.8383 35.2037 69.4436 35.2005C68.9667 35.1966 68.4898 35.1947 68.0128 35.1941C67.8314 35.1936 67.6499 35.1924 67.4685 35.1905C67.2138 35.1881 66.9593 35.1881 66.7046 35.1886C66.6303 35.1874 66.5561 35.1861 66.4796 35.1848C65.8048 35.191 65.2324 35.3989 64.8047 35.9374ZM53.96 41.7577C53.9025 41.8265 53.9025 41.8265 53.8437 41.8968C53.6388 42.1906 53.6599 42.4942 53.6593 42.8369C53.6589 42.8948 53.6586 42.9528 53.6582 43.0125C53.657 43.2043 53.6565 43.396 53.6561 43.5878C53.6556 43.7212 53.6552 43.8546 53.6547 43.988C53.6539 44.2679 53.6534 44.5477 53.6532 44.8276C53.6527 45.1856 53.6508 45.5437 53.6486 45.9017C53.6472 46.1774 53.6468 46.4531 53.6466 46.7287C53.6464 46.8607 53.6458 46.9927 53.6448 47.1246C53.6434 47.3096 53.6436 47.4945 53.6441 47.6794C53.643 47.7607 53.643 47.7607 53.6419 47.8436C53.6455 48.2625 53.7532 48.5589 54.0148 48.8852C54.4314 49.2532 54.8997 49.4118 55.4206 49.5882C55.5671 49.6395 55.7136 49.6908 55.8601 49.7422C56.0159 49.7965 56.1719 49.8502 56.328 49.9037C56.6542 50.0156 56.9798 50.1292 57.3054 50.243C57.64 50.36 57.9746 50.4768 58.3094 50.5931C59.2949 50.9355 60.2772 51.2862 61.2587 51.6397C61.681 51.7917 62.1035 51.9431 62.526 52.0946C62.9662 52.2525 63.4063 52.4104 63.8463 52.5688C64.1427 52.6755 64.4393 52.7819 64.736 52.888C64.8388 52.9249 64.9415 52.9619 65.0442 52.999C65.1801 53.0481 65.3162 53.0967 65.4523 53.1453C65.5631 53.1851 65.5631 53.1851 65.6762 53.2258C65.8649 53.2924 65.8649 53.2924 66.0938 53.2811C66.2345 53.1098 66.2345 53.1098 66.3721 52.8905C67.0464 51.9336 68.0438 51.358 69.1868 51.1305C70.584 50.9369 71.8091 51.2533 72.9322 52.1025C73.3416 52.4451 73.6356 52.8224 73.9063 53.2811C74.2668 53.2317 74.5966 53.1369 74.9378 53.0144C75.0195 52.9856 75.0195 52.9856 75.1029 52.9562C75.2836 52.8923 75.4641 52.8279 75.6446 52.7635C75.7741 52.7176 75.9036 52.6718 76.0331 52.6259C76.3757 52.5045 76.7182 52.3826 77.0606 52.2605C77.259 52.1897 77.4574 52.1191 77.6558 52.0485C78.4642 51.7608 79.2721 51.472 80.0798 51.1827C80.5058 51.0302 80.9318 50.8779 81.3578 50.7256C81.7328 50.5916 82.1077 50.4575 82.4826 50.3233C82.6647 50.2581 82.8468 50.193 83.029 50.1279C83.5154 49.9541 84.0016 49.7796 84.4873 49.6035C84.6651 49.5392 84.8432 49.4758 85.0215 49.4125C85.1118 49.3795 85.2021 49.3466 85.2952 49.3126C85.3682 49.2863 85.4412 49.2601 85.5164 49.233C85.8397 49.0728 86.0601 48.8181 86.25 48.5155C86.3413 48.2416 86.3403 47.9947 86.3408 47.7097C86.3412 47.6518 86.3415 47.5938 86.3419 47.5341C86.3431 47.3423 86.3436 47.1506 86.344 46.9588C86.3445 46.8254 86.3449 46.6919 86.3454 46.5585C86.3462 46.2787 86.3467 45.9989 86.3469 45.719C86.3474 45.361 86.3492 45.0029 86.3515 44.6449C86.3529 44.3692 86.3533 44.0935 86.3535 43.8179C86.3537 43.6859 86.3543 43.5539 86.3553 43.4219C86.3567 43.237 86.3565 43.0521 86.356 42.8672C86.3567 42.813 86.3575 42.7588 86.3582 42.703C86.3546 42.2794 86.2482 41.9641 85.9595 41.6512C85.9136 41.6138 85.8677 41.5764 85.8204 41.5379C85.7744 41.4996 85.7285 41.4612 85.6812 41.4217C85.3999 41.2254 85.1385 41.2399 84.8067 41.2396C84.729 41.2393 84.729 41.2393 84.6497 41.2391C84.4747 41.2387 84.2998 41.2388 84.1249 41.2389C83.9987 41.2387 83.8725 41.2384 83.7463 41.2382C83.3986 41.2375 83.0508 41.2374 82.7031 41.2373C82.3284 41.2372 81.9538 41.2366 81.5791 41.2361C80.7595 41.235 79.9398 41.2346 79.1201 41.2342C78.6086 41.234 78.097 41.2337 77.5855 41.2333C76.1699 41.2324 74.7542 41.2316 73.3386 41.2313C73.2479 41.2313 73.1573 41.2313 73.0639 41.2312C72.973 41.2312 72.8822 41.2312 72.7886 41.2312C72.6045 41.2312 72.4203 41.2311 72.2362 41.2311C72.1449 41.2311 72.0535 41.231 71.9594 41.231C70.479 41.2307 68.9986 41.2294 67.5182 41.2275C65.9992 41.2257 64.4802 41.2247 62.9613 41.2246C62.108 41.2246 61.2548 41.2241 60.4016 41.2227C59.6751 41.2215 58.9487 41.2211 58.2222 41.2217C57.8514 41.222 57.4807 41.222 57.1099 41.2209C56.7706 41.2199 56.4313 41.22 56.092 41.2209C55.9691 41.2211 55.8462 41.2208 55.7234 41.2201C55.5565 41.2193 55.3897 41.2199 55.2229 41.2208C55.0838 41.2207 55.0838 41.2207 54.9419 41.2207C54.5263 41.2684 54.2228 41.4347 53.96 41.7577ZM55.4688 52.0311C55.4597 53.5584 55.4528 55.0857 55.4486 56.6131C55.4465 57.3223 55.4438 58.0315 55.4393 58.7407C55.4354 59.3589 55.4329 59.9772 55.432 60.5954C55.4315 60.9227 55.4303 61.2499 55.4275 61.5772C55.4248 61.8855 55.424 62.1938 55.4246 62.5021C55.4245 62.615 55.4237 62.7278 55.4222 62.8407C55.4117 63.6249 55.4117 63.6249 55.7221 64.3263C56.2693 64.8311 56.7856 64.8101 57.5005 64.8052C57.6128 64.8055 57.725 64.806 57.8372 64.8066C58.1449 64.8079 58.4526 64.8073 58.7603 64.8063C59.0924 64.8056 59.4245 64.8067 59.7566 64.8076C60.4069 64.809 61.0572 64.8087 61.7075 64.8078C62.236 64.807 62.7646 64.807 63.2931 64.8073C63.4059 64.8074 63.4059 64.8074 63.521 64.8074C63.6739 64.8075 63.8267 64.8076 63.9795 64.8077C65.4124 64.8086 66.8453 64.8076 68.2783 64.8059C69.5078 64.8045 70.7373 64.8048 71.9668 64.8062C73.3946 64.8079 74.8224 64.8085 76.2503 64.8076C76.4025 64.8075 76.5548 64.8074 76.707 64.8073C76.7819 64.8072 76.8568 64.8072 76.934 64.8071C77.4619 64.8069 77.9898 64.8073 78.5177 64.8081C79.161 64.8089 79.8043 64.8087 80.4476 64.807C80.7759 64.8062 81.1041 64.8059 81.4323 64.8069C81.7328 64.8079 82.0333 64.8074 82.3338 64.8057C82.4425 64.8053 82.5512 64.8055 82.6598 64.8063C83.3313 64.8106 83.771 64.7941 84.278 64.3263C84.6218 63.8141 84.5836 63.2706 84.5756 62.6741C84.5755 62.5578 84.5756 62.4415 84.5758 62.3252C84.5759 62.0109 84.5736 61.6967 84.5709 61.3825C84.5685 61.0535 84.5682 60.7246 84.5678 60.3956C84.5666 59.7733 84.5634 59.1511 84.5594 58.5288C84.5551 57.8201 84.5529 57.1114 84.551 56.4027C84.5469 54.9455 84.54 53.4883 84.5313 52.0311C84.2002 52.1409 83.8691 52.2509 83.538 52.361C83.4457 52.3916 83.3533 52.4223 83.2581 52.4538C82.3165 52.7671 81.3826 53.1005 80.4493 53.4374C80.272 53.5011 80.0947 53.5649 79.9174 53.6286C79.3719 53.8249 78.8266 54.0217 78.2813 54.2186C78.1908 54.2513 78.1003 54.2839 78.0071 54.3176C76.8743 54.7266 75.7417 55.1363 74.6094 55.5467C74.5944 55.6425 74.5794 55.7382 74.564 55.8368C74.5436 55.9641 74.5231 56.0914 74.5026 56.2187C74.4879 56.3131 74.4879 56.3131 74.473 56.4093C74.2802 57.5968 73.6804 58.5954 72.7073 59.3166C71.5621 60.0705 70.3307 60.3162 68.9844 60.0682C67.8223 59.793 66.8227 59.133 66.1719 58.1249C65.6843 57.306 65.5053 56.4809 65.3907 55.5467C64.1625 55.1061 62.9342 54.6657 61.7059 54.2257C61.403 54.1172 61.1002 54.0086 60.7974 53.9001C60.2566 53.7062 59.7157 53.5125 59.1747 53.3189C58.9881 53.2521 58.8015 53.1853 58.615 53.1184C58.3513 53.0239 58.0876 52.9295 57.8238 52.8352C57.7109 52.7947 57.7109 52.7947 57.5956 52.7533C56.8904 52.5015 56.1797 52.2663 55.4688 52.0311ZM68.3594 53.9842C67.8575 54.6421 67.6649 55.1854 67.7344 56.0155C67.8308 56.6483 68.2055 57.0802 68.6719 57.4999C69.2617 57.893 69.8803 57.9693 70.5704 57.8627C71.163 57.7059 71.6539 57.2847 71.991 56.779C72.2814 56.2171 72.3917 55.5753 72.2068 54.9602C72.1309 54.7847 72.0469 54.6195 71.9532 54.453C71.9097 54.3708 71.8662 54.2886 71.8213 54.204C71.4835 53.793 70.9947 53.4624 70.4688 53.3592C69.6901 53.2867 68.9269 53.401 68.3594 53.9842Z" fill="url(#paint0_linear_1440_1317)"/>
<path d="M67.2128 45.0655C67.2791 45.0651 67.3454 45.0647 67.4138 45.0643C67.6334 45.0632 67.8531 45.0626 68.0728 45.0622C68.2255 45.0617 68.3782 45.0613 68.5308 45.0608C68.8511 45.06 69.1714 45.0596 69.4917 45.0593C69.9018 45.0589 70.3119 45.057 70.722 45.0548C71.0374 45.0533 71.3529 45.0529 71.6684 45.0528C71.8195 45.0525 71.9707 45.0519 72.1219 45.0509C72.3335 45.0496 72.5452 45.0497 72.7569 45.0502C72.8191 45.0495 72.8813 45.0488 72.9455 45.048C73.3229 45.0509 73.5783 45.1059 73.9062 45.3124C74.2536 45.6973 74.3243 45.9336 74.3191 46.4419C74.2784 46.8048 74.0891 47.0172 73.8232 47.2509C73.4909 47.4546 73.1635 47.4339 72.7872 47.4344C72.7209 47.4348 72.6545 47.4352 72.5862 47.4356C72.3665 47.4367 72.1468 47.4373 71.9272 47.4377C71.7745 47.4381 71.6218 47.4386 71.4691 47.439C71.1488 47.4399 70.8285 47.4403 70.5082 47.4406C70.0981 47.441 69.6881 47.4429 69.278 47.4451C68.9625 47.4466 68.6471 47.447 68.3316 47.4471C68.1804 47.4473 68.0293 47.448 67.8781 47.449C67.6664 47.4503 67.4548 47.4502 67.2431 47.4497C67.1808 47.4504 67.1186 47.4511 67.0545 47.4518C66.6771 47.449 66.4216 47.394 66.0937 47.1874C65.7464 46.8026 65.6757 46.5662 65.6808 46.058C65.7215 45.6951 65.9108 45.4826 66.1767 45.249C66.5091 45.0453 66.8364 45.066 67.2128 45.0655Z" fill="#F98A17"/>
</g>
<defs>
<filter id="filter0_d_1440_1317" x="0" y="0" width="140" height="140" filterUnits="userSpaceOnUse" color-interpolation-filters="sRGB">
<feFlood flood-opacity="0" result="BackgroundImageFix"/>
<feColorMatrix in="SourceAlpha" type="matrix" values="0 0 0 0 0 0 0 0 0 0 0 0 0 0 0 0 0 0 127 0" result="hardAlpha"/>
<feMorphology radius="10" operator="erode" in="SourceAlpha" result="effect1_dropShadow_1440_1317"/>
<feOffset dy="20"/>
<feGaussianBlur stdDeviation="20"/>
<feComposite in2="hardAlpha" operator="out"/>
<feColorMatrix type="matrix" values="0 0 0 0 0.0470588 0 0 0 0 0.0470588 0 0 0 0 0.0509804 0 0 0 0.2 0"/>
<feBlend mode="normal" in2="BackgroundImageFix" result="effect1_dropShadow_1440_1317"/>
<feBlend mode="normal" in="SourceGraphic" in2="effect1_dropShadow_1440_1317" result="shape"/>
</filter>
<linearGradient id="paint0_linear_1440_1317" x1="70.0023" y1="32.8496" x2="70.0023" y2="67.1523" gradientUnits="userSpaceOnUse">
<stop stop-color="#3736AE"/>
<stop offset="1" stop-color="#2D235D"/>
</linearGradient>
</defs>
</svg>
