<svg width="154" height="154" viewBox="0 0 154 154" fill="none" xmlns="http://www.w3.org/2000/svg">
<g filter="url(#filter0_d_1440_1297)">
<rect x="28.8" y="9.60001" width="96" height="96" rx="48" fill="white"/>
<rect x="30.6" y="11.4" width="92.4" height="92.4" rx="46.2" stroke="white" stroke-width="3.6"/>
<path d="M60.6945 38.7318C60.8391 38.7315 60.9838 38.7311 61.1284 38.7307C61.5243 38.7297 61.9201 38.7299 62.316 38.7304C62.7435 38.7306 63.1711 38.7297 63.5986 38.729C64.4356 38.7278 65.2726 38.7277 66.1096 38.7279C66.79 38.7281 67.4705 38.7279 68.1509 38.7275C68.2963 38.7274 68.2963 38.7274 68.4446 38.7273C68.6414 38.7272 68.8383 38.7271 69.0351 38.727C70.8807 38.726 72.7262 38.7262 74.5717 38.7267C76.2593 38.7272 77.9469 38.7262 79.6346 38.7244C81.3683 38.7226 83.102 38.7218 84.8357 38.7221C85.8087 38.7223 86.7817 38.7221 87.7547 38.7208C88.583 38.7197 89.4113 38.7195 90.2396 38.7207C90.662 38.7212 91.0844 38.7213 91.5068 38.7202C91.894 38.7192 92.281 38.7195 92.6682 38.7208C92.8078 38.721 92.9474 38.7208 93.087 38.72C94.7507 38.7117 96.2032 39.1682 97.4193 40.3256C98.8518 41.7562 99.2407 43.4487 99.2455 45.4039C99.2451 45.599 99.2447 45.7941 99.2443 45.9892C99.2448 46.1975 99.2455 46.4059 99.2462 46.6142C99.2479 47.1771 99.2478 47.74 99.2473 48.3029C99.247 48.7742 99.2475 49.2455 99.2481 49.7167C99.2495 50.8928 99.2492 52.0688 99.248 53.2448C99.2471 54.2628 99.2483 55.2808 99.2505 56.2988C99.2528 57.3477 99.2537 58.3965 99.2531 59.4453C99.2528 60.0328 99.253 60.6202 99.2546 61.2076C99.2561 61.7603 99.2557 62.313 99.2539 62.8658C99.2536 63.0676 99.2539 63.2694 99.2549 63.4712C99.264 65.4857 98.9922 67.2316 97.5339 68.7434C97.4671 68.8095 97.4002 68.8756 97.3314 68.9437C97.2829 68.9953 97.2345 69.0469 97.1845 69.1001C96.8192 69.4559 96.3814 69.6753 95.931 69.9047C95.8683 69.9367 95.8057 69.9688 95.7411 70.0018C94.7395 70.4921 93.7106 70.5557 92.6099 70.5344C92.4168 70.5317 92.2236 70.529 92.0305 70.5263C91.9293 70.5248 91.8281 70.5233 91.7238 70.5218C91.0697 70.5133 90.4156 70.5117 89.7615 70.509C89.1884 70.5063 88.6156 70.501 88.0426 70.4902C87.486 70.4799 86.9297 70.4766 86.3729 70.4778C86.162 70.4771 85.951 70.4739 85.7401 70.4681C84.5029 70.4043 84.5029 70.4043 83.4382 70.9362C83.1675 71.2246 82.9404 71.5337 82.7261 71.8656C82.5614 72.1151 82.3723 72.3369 82.179 72.5648C82.1131 72.6463 82.0471 72.7277 81.9791 72.8117C81.6976 73.156 81.4099 73.4949 81.1209 73.8329C80.9141 74.0754 80.713 74.3192 80.5175 74.5709C80.0588 75.1615 79.6038 75.5971 78.9564 75.975C78.8912 76.0134 78.8261 76.0518 78.759 76.0914C77.7736 76.598 76.5399 76.658 75.4876 76.35C74.3802 75.9016 73.6545 75.3247 72.9113 74.393C72.6531 74.0696 72.3832 73.7568 72.1126 73.4437C71.7759 73.0529 71.4426 72.66 71.1165 72.2601C71.052 72.1838 70.9874 72.1076 70.9209 72.0289C70.7064 71.7562 70.7064 71.7562 70.5379 71.4653C70.2753 71.0562 70.0384 70.7114 69.5553 70.5677C68.9036 70.4655 68.2447 70.4932 67.5874 70.5075C67.373 70.5079 67.1587 70.5079 66.9444 70.5073C66.3814 70.5071 65.8187 70.5135 65.2558 70.5215C64.5745 70.53 63.893 70.5314 63.2116 70.5333C62.6809 70.5347 62.1502 70.5374 61.6195 70.5442C59.4857 70.5668 57.7286 70.305 56.1114 68.7892C54.5368 67.1934 54.3365 65.3158 54.3454 63.1788C54.3449 62.9705 54.3442 62.7621 54.3434 62.5537C54.3417 61.992 54.3423 61.4303 54.3435 60.8686C54.3445 60.2782 54.3436 59.6878 54.343 59.0975C54.3423 58.0431 54.3434 56.9888 54.3453 55.9344C54.347 54.9815 54.3467 54.0286 54.345 53.0756C54.343 51.9648 54.3422 50.854 54.3434 49.7432C54.3439 49.1567 54.344 48.5703 54.3428 47.9838C54.3417 47.4322 54.3425 46.8806 54.3446 46.329C54.3451 46.1277 54.345 45.9263 54.3441 45.725C54.3366 43.7285 54.6028 41.972 56.0466 40.4697C57.4271 39.1439 58.8143 38.7266 60.6945 38.7318ZM57.9795 42.489C57.396 43.2129 57.149 43.9972 57.1588 44.917C57.1582 45.0037 57.1576 45.0903 57.157 45.1796C57.1555 45.4674 57.1567 45.755 57.1579 46.0427C57.1574 46.2501 57.1567 46.4575 57.1559 46.6648C57.1542 47.2261 57.1548 47.7875 57.156 48.3488C57.157 48.9372 57.1561 49.5255 57.1555 50.1139C57.1548 51.1651 57.1559 52.2162 57.1578 53.2674C57.1595 54.219 57.1592 55.1706 57.1575 56.1222C57.1555 57.2293 57.1547 58.3364 57.1559 59.4435C57.1564 60.0288 57.1565 60.6141 57.1553 61.1994C57.1542 61.7498 57.1549 62.3001 57.1571 62.8505C57.1576 63.052 57.1575 63.2536 57.1566 63.4552C57.1556 63.7312 57.1569 64.007 57.1588 64.2829C57.1579 64.362 57.1571 64.4411 57.1562 64.5226C57.1686 65.4706 57.569 66.3089 58.2376 66.975C59.1042 67.6351 59.9383 67.7531 60.9982 67.7489C61.1033 67.7493 61.2084 67.7496 61.3167 67.75C61.5439 67.7506 61.7712 67.7508 61.9984 67.7507C62.3582 67.7506 62.7179 67.7518 63.0777 67.7534C64.1003 67.7578 65.1229 67.7601 66.1455 67.7607C66.7719 67.7611 67.3982 67.7634 68.0246 67.7668C68.263 67.7677 68.5013 67.768 68.7397 67.7675C69.0729 67.7668 69.406 67.7684 69.7392 67.7705C69.8374 67.7698 69.9356 67.769 70.0367 67.7682C70.6244 67.7749 70.9764 67.8479 71.4564 68.1937C71.6688 68.4131 71.6688 68.4131 71.8548 68.6566C72.1679 69.0564 72.486 69.4485 72.8158 69.8344C73.1304 70.2043 73.4413 70.5765 73.7474 70.9535C74.2088 71.5203 74.6847 72.0745 75.1627 72.6274C75.2597 72.7405 75.3561 72.8541 75.4519 72.9682C75.5015 73.0271 75.5511 73.086 75.6023 73.1467C75.6471 73.2004 75.6919 73.254 75.7381 73.3093C76.0397 73.635 76.373 73.6442 76.7943 73.6605C77.3044 73.671 77.6693 73.5016 78.0412 73.1537C78.1054 73.0793 78.1696 73.0048 78.2357 72.9281C78.3082 72.8445 78.3807 72.7609 78.4554 72.6747C78.7365 72.3393 79.014 72.0012 79.2893 71.661C79.5487 71.3449 79.8144 71.0347 80.0814 70.725C80.6313 70.0864 81.1751 69.4428 81.6898 68.7753C81.7546 68.6917 81.8193 68.608 81.8861 68.5219C81.9709 68.4102 81.9709 68.4102 82.0575 68.2963C82.3164 68.0142 82.5292 67.84 82.9215 67.7929C83.1985 67.7823 83.4744 67.7811 83.7516 67.7827C83.8572 67.7822 83.9627 67.7817 84.0715 67.7811C84.3005 67.7802 84.5296 67.7799 84.7587 67.7802C85.1217 67.7807 85.4846 67.7793 85.8476 67.7776C86.6189 67.7741 87.3902 67.7728 88.1615 67.7719C89.0538 67.7707 89.946 67.7687 90.8383 67.7644C91.1951 67.7631 91.5518 67.7635 91.9086 67.7639C92.1288 67.7631 92.349 67.7621 92.5692 67.7611C92.6677 67.7616 92.7662 67.7622 92.8676 67.7628C93.8537 67.7546 94.6951 67.5256 95.4564 66.8812C96.1562 66.1565 96.4518 65.2766 96.4421 64.2842C96.4431 64.1544 96.4431 64.1544 96.4441 64.022C96.4458 63.7347 96.4449 63.4475 96.4439 63.1602C96.4446 62.9532 96.4454 62.7461 96.4463 62.539C96.4484 61.9785 96.4482 61.4179 96.4473 60.8574C96.4469 60.3886 96.4476 59.9199 96.4482 59.4511C96.4499 58.2818 96.4493 57.1124 96.4477 55.943C96.4463 54.9296 96.4476 53.9162 96.4504 52.9028C96.4531 51.8599 96.4541 50.817 96.4532 49.7741C96.4528 49.1895 96.453 48.6049 96.4549 48.0204C96.4566 47.4705 96.4561 46.9206 96.4538 46.3707C96.4533 46.1695 96.4536 45.9683 96.4548 45.7671C96.4617 44.5097 96.4544 43.3393 95.5307 42.3682C94.5394 41.5237 93.564 41.4469 92.31 41.4505C92.1708 41.4503 92.0316 41.4499 91.8924 41.4495C91.5111 41.4485 91.1298 41.4487 90.7485 41.4491C90.3368 41.4493 89.9251 41.4485 89.5134 41.4478C88.7073 41.4466 87.9013 41.4464 87.0952 41.4466C86.4399 41.4468 85.7846 41.4466 85.1293 41.4462C85.036 41.4462 84.9427 41.4461 84.8466 41.4461C84.6571 41.446 84.4676 41.4458 84.278 41.4457C82.5009 41.4447 80.7238 41.4449 78.9467 41.4455C77.3214 41.446 75.6962 41.4449 74.0709 41.4431C72.4015 41.4413 70.7321 41.4405 69.0627 41.4409C68.1257 41.4411 67.1887 41.4408 66.2517 41.4395C65.454 41.4384 64.6564 41.4383 63.8587 41.4394C63.4519 41.44 63.045 41.4401 62.6382 41.4389C62.2654 41.4379 61.8927 41.4382 61.5199 41.4395C61.3854 41.4398 61.2509 41.4395 61.1164 41.4388C59.9115 41.4325 58.8499 41.5876 57.9795 42.489Z" fill="#3736AE"/>
<path d="M71.2691 46.8187C72.6376 47.8885 73.3538 49.1333 73.6128 50.85C73.7684 52.2794 73.219 53.6453 72.3941 54.7875C72.4452 54.8251 72.4963 54.8627 72.549 54.9014C73.9671 55.9704 74.8033 57.1371 75.1678 58.8964C75.2171 59.2742 75.2275 59.6451 75.23 60.0258C75.232 60.0974 75.2339 60.1691 75.2359 60.2429C75.2405 60.9143 75.0733 61.4871 74.6675 62.0297C74.6255 62.0882 74.5834 62.1467 74.5401 62.2069C74.0282 62.7104 73.4548 62.8421 72.7691 62.9555C72.6788 62.9709 72.5886 62.9863 72.4956 63.0022C69.549 63.4847 66.5374 63.4477 63.5933 62.9672C63.4688 62.9485 63.4688 62.9485 63.3418 62.9295C62.5367 62.7855 61.8943 62.3997 61.4228 61.7254C60.8777 60.6024 61.051 59.0283 61.4253 57.8812C61.9277 56.648 62.6493 55.6264 63.7691 54.8812C63.831 54.8812 63.8928 54.8812 63.9566 54.8812C63.8812 54.7536 63.8812 54.7536 63.8043 54.6234C63.7295 54.4909 63.6554 54.3581 63.5816 54.225C63.5353 54.1421 63.489 54.0592 63.4413 53.9738C62.6812 52.5445 62.553 51.1646 62.9953 49.6155C63.4099 48.2857 64.3936 47.1752 65.6024 46.4968C67.4272 45.6056 69.5782 45.6409 71.2691 46.8187ZM66.1128 49.6312C65.6439 50.3316 65.4645 50.945 65.5503 51.7875C65.7374 52.5068 66.0746 53.1295 66.7193 53.5222C67.4097 53.8786 68.0344 54.0784 68.8085 53.8764C69.6793 53.5825 70.1932 53.1766 70.6128 52.35C70.8783 51.642 70.8771 51.0098 70.6154 50.3091C70.2709 49.5612 69.7569 49.1393 69.0191 48.7875C67.9703 48.4541 66.8274 48.804 66.1128 49.6312ZM64.5191 57.975C64.162 58.5344 63.9409 59.0663 63.9507 59.7328C63.9516 59.8077 63.9524 59.8827 63.9533 59.9599C63.9544 60.0164 63.9555 60.073 63.9566 60.1312C64.1987 60.1768 64.4409 60.2216 64.6832 60.266C64.7497 60.2786 64.8163 60.2913 64.8849 60.3043C65.9476 60.4971 67.0154 60.5281 68.0933 60.5297C68.1577 60.5299 68.2221 60.5301 68.2884 60.5302C70.3717 60.5437 70.3717 60.5437 72.3941 60.1312C72.4553 59.198 72.2393 58.4752 71.6324 57.7523C71.094 57.1917 70.4013 56.7777 69.6125 56.7396C69.4693 56.7371 69.326 56.7352 69.1828 56.7339C69.1063 56.7331 69.0299 56.7324 68.9511 56.7316C68.789 56.7303 68.6269 56.7293 68.4648 56.7286C68.3003 56.7275 68.1359 56.7256 67.9714 56.7228C66.5299 56.6984 65.5221 56.8315 64.5191 57.975Z" fill="#F98A16"/>
<path d="M79.2684 50.3681C79.3743 50.3675 79.4802 50.367 79.5894 50.3665C79.7062 50.3664 79.823 50.3663 79.9433 50.3661C80.1271 50.3654 80.1271 50.3654 80.3147 50.3647C80.6516 50.3635 80.9884 50.3629 81.3253 50.3625C81.5357 50.3622 81.7462 50.3618 81.9567 50.3614C82.6152 50.3601 83.2738 50.3592 83.9323 50.3589C84.6924 50.3584 85.4525 50.3568 86.2126 50.3541C86.8001 50.352 87.3876 50.3511 87.9751 50.351C88.326 50.3509 88.6769 50.3503 89.0277 50.3486C89.4194 50.3468 89.811 50.3472 90.2027 50.3478C90.3187 50.347 90.4347 50.3461 90.5543 50.3452C91.5424 50.35 91.5424 50.35 91.9879 50.6625C92.3023 51.0025 92.4404 51.2466 92.4859 51.7113C92.45 52.149 92.3323 52.4594 92.0816 52.8187C91.6567 53.148 91.2608 53.2053 90.7345 53.2069C90.5813 53.2077 90.5813 53.2077 90.4251 53.2085C90.3135 53.2086 90.2019 53.2087 90.0869 53.2089C89.9101 53.2096 89.9101 53.2096 89.7298 53.2103C89.4067 53.2115 89.0836 53.2121 88.7604 53.2125C88.5584 53.2128 88.3564 53.2132 88.1544 53.2136C87.5218 53.2149 86.8893 53.2158 86.2567 53.2161C85.5274 53.2166 84.7981 53.2182 84.0687 53.2209C83.5044 53.223 82.9401 53.2239 82.3757 53.224C82.0389 53.2241 81.7022 53.2247 81.3654 53.2264C80.9895 53.2282 80.6136 53.2278 80.2377 53.2272C80.0712 53.2285 80.0712 53.2285 79.9013 53.2298C79.2629 53.2265 78.7349 53.2059 78.2308 52.7719C77.8783 52.3051 77.792 51.9969 77.8316 51.4125C78.0924 50.7126 78.5354 50.3703 79.2684 50.3681Z" fill="#F88916"/>
<path d="M79.7204 55.9926C79.8917 55.9917 79.8917 55.9917 80.0665 55.9908C80.1892 55.9907 80.3119 55.9906 80.4382 55.9905C80.5663 55.9902 80.6944 55.9899 80.8225 55.9896C81.0906 55.989 81.3586 55.9888 81.6267 55.9889C81.9689 55.9889 82.3112 55.9876 82.6534 55.986C82.9178 55.9849 83.1823 55.9848 83.4467 55.9848C83.6338 55.9846 83.8209 55.9836 84.008 55.9826C85.3615 55.986 85.3615 55.986 85.7966 56.3457C85.8623 56.43 85.8623 56.43 85.9292 56.516C85.9744 56.572 86.0196 56.6279 86.0662 56.6856C86.3031 57.0425 86.3038 57.3711 86.269 57.7875C86.0822 58.299 85.8046 58.5463 85.3315 58.8188C85.0185 58.8664 85.0185 58.8664 84.6742 58.8673C84.611 58.8679 84.5478 58.8686 84.4827 58.8693C84.2754 58.8709 84.0682 58.8698 83.8608 58.8686C83.7159 58.8688 83.5709 58.8692 83.4259 58.8696C83.1227 58.8702 82.8194 58.8694 82.5162 58.8676C82.1284 58.8655 81.7408 58.8667 81.353 58.869C81.0538 58.8703 80.7547 58.8699 80.4555 58.8689C80.3125 58.8687 80.1696 58.869 80.0267 58.8699C79.8265 58.8708 79.6265 58.8694 79.4264 58.8673C79.3128 58.867 79.1991 58.8667 79.082 58.8664C78.6301 58.7976 78.3357 58.5907 78.0366 58.2504C77.8088 57.8787 77.8026 57.5585 77.8315 57.1313C78.009 56.6384 78.2559 56.3936 78.6753 56.1C79.0254 56.0049 79.3588 55.9939 79.7204 55.9926Z" fill="#F98917"/>
</g>
<defs>
<filter id="filter0_d_1440_1297" x="4.76837e-05" y="5.72205e-06" width="153.6" height="153.6" filterUnits="userSpaceOnUse" color-interpolation-filters="sRGB">
<feFlood flood-opacity="0" result="BackgroundImageFix"/>
<feColorMatrix in="SourceAlpha" type="matrix" values="0 0 0 0 0 0 0 0 0 0 0 0 0 0 0 0 0 0 127 0" result="hardAlpha"/>
<feMorphology radius="9.6" operator="erode" in="SourceAlpha" result="effect1_dropShadow_1440_1297"/>
<feOffset dy="19.2"/>
<feGaussianBlur stdDeviation="19.2"/>
<feComposite in2="hardAlpha" operator="out"/>
<feColorMatrix type="matrix" values="0 0 0 0 0.0470588 0 0 0 0 0.0470588 0 0 0 0 0.0509804 0 0 0 0.2 0"/>
<feBlend mode="normal" in2="BackgroundImageFix" result="effect1_dropShadow_1440_1297"/>
<feBlend mode="normal" in="SourceGraphic" in2="effect1_dropShadow_1440_1297" result="shape"/>
</filter>
</defs>
</svg>
