<svg width="140" height="140" viewBox="0 0 140 140" fill="none" xmlns="http://www.w3.org/2000/svg">
<g filter="url(#filter0_d_1440_1315)">
<rect x="30" y="10" width="80" height="80" rx="40" fill="white"/>
<rect x="31.5" y="11.5" width="77" height="77" rx="38.5" stroke="white" stroke-width="3"/>
<path d="M60.0782 31.5625C60.4792 31.7666 60.7173 31.9952 60.8595 32.4219C60.8595 32.757 60.8595 33.0922 60.8595 33.4375C62.5095 33.4375 64.1595 33.4375 65.8595 33.4375C65.8595 33.0765 65.8595 32.7156 65.8595 32.3437C66.2501 31.6927 66.2501 31.6927 66.6407 31.5625C67.0309 31.5215 67.3344 31.5195 67.6905 31.6943C67.9928 31.9671 68.1048 32.1844 68.2032 32.5781C68.2032 32.8617 68.2032 33.1453 68.2032 33.4375C69.8274 33.4375 71.4517 33.4375 73.1251 33.4375C73.1251 33.1281 73.1251 32.8187 73.1251 32.5C73.2477 32.0871 73.3922 31.8792 73.7501 31.6406C74.0403 31.4955 74.3709 31.5279 74.6876 31.5625C75.0672 31.7452 75.2964 31.9591 75.4688 32.3437C75.4776 32.5317 75.4796 32.7201 75.4768 32.9083C75.4751 33.0567 75.4751 33.0567 75.4733 33.2082C75.4718 33.2839 75.4704 33.3595 75.4688 33.4375C75.5904 33.435 75.5904 33.435 75.7144 33.4325C76.0213 33.4268 76.3282 33.4232 76.6352 33.4203C76.7669 33.4188 76.8985 33.4167 77.0302 33.4139C78.6305 33.3815 80.0377 33.6866 81.2413 34.8181C82.1842 35.7539 82.6683 37.0245 82.6793 38.3384C82.6792 38.4235 82.6791 38.5087 82.679 38.5964C82.6796 38.6879 82.6801 38.7795 82.6806 38.8738C82.6821 39.1746 82.6824 39.4755 82.6826 39.7763C82.683 39.933 82.6833 40.0898 82.6838 40.2465C82.685 40.7385 82.6854 41.2304 82.6853 41.7223C82.6852 42.2289 82.6869 42.7355 82.6893 43.2421C82.6914 43.6783 82.6922 44.1145 82.6921 44.5507C82.6921 44.8106 82.6926 45.0706 82.6942 45.3306C82.6957 45.6203 82.6952 45.9099 82.6943 46.1995C82.6952 46.2851 82.6961 46.3707 82.697 46.4589C82.6919 47.0668 82.5781 47.3084 82.1827 47.7637C81.828 47.9599 81.4899 47.9488 81.0938 47.8906C80.7828 47.7351 80.5688 47.5656 80.3907 47.2656C80.3179 47.0312 80.3028 46.8196 80.3029 46.5748C80.3027 46.4988 80.3025 46.4229 80.3023 46.3446C80.3024 46.2617 80.3026 46.1788 80.3028 46.0934C80.3025 45.9619 80.3025 45.9619 80.3023 45.8277C80.302 45.6371 80.3018 45.4465 80.3018 45.2559C80.3015 44.7976 80.2995 44.3392 80.2976 43.8809C80.2949 43.1777 80.2928 42.4745 80.293 41.7713C80.2932 41.2457 80.2913 40.72 80.2882 40.1944C80.2874 39.9945 80.2873 39.7947 80.2878 39.5949C80.2886 39.3142 80.2869 39.0337 80.2847 38.753C80.2855 38.6714 80.2863 38.5898 80.2872 38.5057C80.2768 37.762 80.061 37.0934 79.5655 36.5283C78.7613 35.8115 77.8333 35.7992 76.8165 35.7959C76.6853 35.7941 76.554 35.7921 76.4228 35.7899C76.1048 35.7851 75.7869 35.7825 75.4688 35.7812C75.4699 35.8513 75.471 35.9214 75.4721 35.9936C75.4729 36.0854 75.4738 36.1771 75.4746 36.2717C75.4757 36.3627 75.4768 36.4537 75.4779 36.5475C75.467 36.847 75.4137 37.0246 75.2345 37.2656C74.8679 37.5964 74.6483 37.68 74.1654 37.673C73.8008 37.6392 73.5823 37.492 73.3351 37.2314C73.024 36.7591 73.1251 36.3817 73.1251 35.7812C71.5009 35.7812 69.8767 35.7812 68.2032 35.7812C68.2032 36.039 68.2032 36.2969 68.2032 36.5625C68.1246 36.9982 67.9967 37.2164 67.6563 37.5C67.3226 37.6965 67.0198 37.709 66.6407 37.6562C66.2626 37.4707 66.0319 37.2597 65.8595 36.875C65.8595 36.514 65.8595 36.1531 65.8595 35.7812C64.2095 35.7812 62.5595 35.7812 60.8595 35.7812C60.8595 36.1164 60.8595 36.4515 60.8595 36.7969C60.734 37.1734 60.5586 37.3537 60.2345 37.5781C59.9643 37.7132 59.6711 37.6837 59.3751 37.6562C59.0064 37.5241 58.8121 37.3546 58.5938 37.0312C58.5047 36.7639 58.508 36.5557 58.5108 36.2744C58.5115 36.1823 58.5122 36.0901 58.513 35.9952C58.5139 35.9246 58.5148 35.854 58.5157 35.7812C58.1294 35.7847 57.7432 35.7902 57.357 35.7974C57.2259 35.7996 57.0949 35.8013 56.9638 35.8024C55.9392 35.8116 55.1517 35.8826 54.3736 36.618C53.9409 37.1181 53.7408 37.681 53.7396 38.3342C53.7393 38.4252 53.7389 38.5162 53.7386 38.6099C53.7386 38.7099 53.7386 38.81 53.7386 38.913C53.7383 39.0203 53.738 39.1276 53.7377 39.2349C53.7369 39.53 53.7367 39.8252 53.7364 40.1203C53.7361 40.4385 53.7354 40.7568 53.7347 41.075C53.7332 41.8436 53.7324 42.6123 53.7317 43.381C53.7313 43.7431 53.7309 44.1051 53.7305 44.4672C53.7292 45.6709 53.728 46.8746 53.7275 48.0784C53.7273 48.3907 53.7272 48.7031 53.727 49.0154C53.727 49.0931 53.727 49.1707 53.7269 49.2507C53.7263 50.508 53.7243 51.7654 53.7218 53.0227C53.7192 54.3139 53.7178 55.605 53.7175 56.8961C53.7173 57.621 53.7167 58.3458 53.7147 59.0706C53.713 59.688 53.7123 60.3053 53.7131 60.9227C53.7135 61.2375 53.7133 61.5523 53.7118 61.8671C53.7104 62.1558 53.7105 62.4444 53.7117 62.733C53.712 62.886 53.7107 63.039 53.7094 63.1919C53.7155 64.0364 53.8786 64.7206 54.4752 65.34C55.2694 66.1017 56.1355 66.1053 57.1876 66.1048C57.3433 66.1052 57.499 66.1057 57.6547 66.1061C57.8212 66.1065 57.9877 66.1067 58.1542 66.1069C58.5019 66.1074 58.8496 66.1087 59.1974 66.1101C59.3166 66.1106 59.4359 66.1111 59.5552 66.1116C59.6149 66.1119 59.6746 66.1121 59.7361 66.1124C60.545 66.1157 61.3538 66.1182 62.1627 66.1192C62.7093 66.1199 63.2558 66.1216 63.8024 66.1246C64.0913 66.1262 64.3802 66.1271 64.6691 66.1267C64.9911 66.1263 65.3131 66.1283 65.6352 66.1305C65.7305 66.1299 65.8259 66.1294 65.9241 66.1289C66.4179 66.1344 66.739 66.1424 67.1095 66.4844C67.3686 66.8558 67.4119 67.2167 67.3438 67.6562C67.2388 67.9643 67.0985 68.1626 66.8148 68.3337C66.5512 68.4422 66.3747 68.4669 66.0914 68.4672C65.9987 68.4679 65.9061 68.4686 65.8107 68.4692C65.6598 68.4685 65.6598 68.4685 65.5059 68.4678C65.398 68.4681 65.2902 68.4685 65.1823 68.4691C64.8902 68.4701 64.598 68.4697 64.3058 68.469C63.9991 68.4684 63.6923 68.4689 63.3856 68.4693C62.87 68.4697 62.3545 68.4692 61.839 68.468C61.2449 68.4668 60.6509 68.4672 60.0569 68.4685C59.5454 68.4695 59.034 68.4697 58.5226 68.4691C58.2178 68.4687 57.913 68.4687 57.6082 68.4694C57.321 68.4701 57.0339 68.4696 56.7467 68.4683C56.5926 68.4678 56.4384 68.4685 56.2843 68.4692C54.8912 68.4595 53.6928 68.004 52.7052 67.0175C51.6468 65.8788 51.2904 64.5552 51.2985 63.0263C51.2982 62.9176 51.2978 62.8089 51.2973 62.7002C51.2964 62.4045 51.2968 62.1087 51.2976 61.8129C51.2981 61.4928 51.2973 61.1727 51.2966 60.8525C51.2956 60.2265 51.2958 59.6006 51.2965 58.9746C51.297 58.4655 51.2971 57.9564 51.2969 57.4474C51.2968 57.3747 51.2968 57.3021 51.2967 57.2273C51.2967 57.0798 51.2966 56.9322 51.2965 56.7847C51.2958 55.4029 51.2966 54.0212 51.2979 52.6395C51.2989 51.4556 51.2987 50.2717 51.2977 49.0878C51.2964 47.7109 51.2959 46.3341 51.2966 44.9572C51.2967 44.8102 51.2968 44.6632 51.2969 44.5162C51.2969 44.4077 51.2969 44.4077 51.297 44.297C51.2972 43.789 51.2968 43.281 51.2963 42.7729C51.2956 42.1532 51.2958 41.5335 51.297 40.9137C51.2977 40.5979 51.2979 40.2822 51.2971 39.9663C51.2964 39.6766 51.2968 39.3868 51.2981 39.097C51.2984 38.944 51.2977 38.791 51.2969 38.638C51.3067 37.1428 51.7462 35.842 52.8126 34.7656C54.1118 33.6263 55.4645 33.3972 57.1339 33.4228C57.2685 33.424 57.4031 33.4251 57.5378 33.426C57.8638 33.4286 58.1897 33.4326 58.5157 33.4375C58.5141 33.3324 58.5141 33.3324 58.5125 33.2251C58.5116 33.1334 58.5108 33.0416 58.5099 32.9471C58.5083 32.8105 58.5083 32.8105 58.5067 32.6712C58.5175 32.3717 58.5709 32.1941 58.7501 31.9531C59.1833 31.5622 59.504 31.4981 60.0782 31.5625Z" fill="url(#paint0_linear_1440_1315)"/>
<path d="M87.3069 49.9121C88.0292 50.5339 88.5725 51.3778 88.6716 52.3437C88.7447 53.3717 88.5817 54.3552 87.9098 55.1648C87.3707 55.7629 86.8048 56.3326 86.2362 56.9024C86.1257 57.0133 86.0153 57.1243 85.9048 57.2353C85.5449 57.5968 85.1846 57.9579 84.8243 58.3191C84.6996 58.444 84.575 58.5689 84.4504 58.6939C83.8654 59.2804 83.2802 59.8667 82.6947 60.4528C82.0207 61.1276 81.3473 61.8031 80.6744 62.4791C80.1528 63.0031 79.6306 63.5264 79.1079 64.0494C78.7963 64.3611 78.485 64.6731 78.1744 64.9857C77.8823 65.2796 77.5895 65.5727 77.2962 65.8653C77.189 65.9724 77.0821 66.0798 76.9755 66.1875C76.225 66.9452 75.5543 67.5483 74.4879 67.792C74.4206 67.8085 74.3533 67.825 74.2839 67.842C74.0719 67.8936 73.8596 67.9434 73.6472 67.9931C73.5035 68.0279 73.3598 68.0627 73.2161 68.0977C71.1626 68.5948 71.1626 68.5948 70.2341 68.125C69.7328 67.7597 69.4103 67.2463 69.3015 66.6357C69.2484 65.7657 69.5865 64.8033 69.7942 63.9602C69.8207 63.8519 69.8468 63.7434 69.8724 63.6349C70.2509 62.0298 71.2026 61.1291 72.3368 59.9941C72.445 59.8855 72.5533 59.7768 72.6615 59.6682C72.9535 59.3752 73.2457 59.0824 73.538 58.7898C73.7209 58.6066 73.9038 58.4234 74.0867 58.2402C74.6599 57.666 75.2332 57.0919 75.8068 56.518C76.4671 55.8573 77.127 55.1961 77.7864 54.5344C78.2977 54.0215 78.8093 53.509 79.3213 52.9969C79.6265 52.6916 79.9316 52.3861 80.2361 52.0802C80.5224 51.7926 80.8092 51.5057 81.0964 51.2191C81.2014 51.1142 81.3062 51.0091 81.4107 50.9037C83.0513 49.2517 85.2163 48.2781 87.3069 49.9121ZM83.1247 52.5586C83.0486 52.6363 82.9724 52.7139 82.8962 52.7914C82.7112 52.98 82.527 53.1694 82.3435 53.3594C82.7311 53.8277 83.1519 54.255 83.5837 54.6826C83.6524 54.7509 83.7211 54.8193 83.7918 54.8897C83.9599 55.0568 84.1282 55.2238 84.2966 55.3906C84.7132 55.2087 84.995 54.8773 85.3122 54.5605C85.3753 54.4994 85.4383 54.4383 85.5033 54.3753C85.914 53.9666 86.2522 53.5906 86.3666 53.0047C86.3541 52.5609 86.2922 52.2358 85.9699 51.904C85.6317 51.5982 85.3569 51.429 84.8972 51.3769C84.1086 51.4571 83.6472 52.0172 83.1247 52.5586ZM80.2961 55.3848C80.1927 55.4868 80.1927 55.4868 80.0873 55.5909C80.0108 55.6672 79.9342 55.7436 79.8577 55.82C79.7773 55.8997 79.6968 55.9794 79.6163 56.059C79.3972 56.2761 79.1786 56.4937 78.9602 56.7114C78.8236 56.8475 78.687 56.9835 78.5503 57.1194C78.1227 57.5449 77.6954 57.9707 77.2685 58.397C76.776 58.8888 76.2825 59.3795 75.7881 59.8694C75.406 60.2482 75.0248 60.6278 74.6442 61.0082C74.417 61.2352 74.1894 61.4619 73.9608 61.6877C73.7455 61.9004 73.5314 62.1142 73.3181 62.3289C73.2398 62.4072 73.1612 62.4852 73.0822 62.5627C72.6337 63.0029 72.3153 63.3603 72.1872 63.9844C72.1666 64.0583 72.146 64.1323 72.1248 64.2086C72.0751 64.4137 72.0258 64.6188 71.9773 64.8242C71.9597 64.896 71.9421 64.9678 71.924 65.0418C71.8992 65.1462 71.8992 65.1462 71.8738 65.2527C71.8515 65.346 71.8515 65.346 71.8287 65.4412C71.7947 65.6361 71.7911 65.8181 71.7966 66.0156C72.1206 65.9446 72.4444 65.8724 72.7679 65.7991C72.8778 65.7744 72.9877 65.75 73.0977 65.726C73.2568 65.6911 73.4155 65.6551 73.5743 65.6189C73.7172 65.587 73.7172 65.587 73.8631 65.5544C74.5596 65.3392 74.9862 64.8898 75.488 64.3821C75.5673 64.3027 75.6467 64.2234 75.7261 64.1441C75.9404 63.9298 76.1541 63.7148 76.3676 63.4996C76.5912 63.2745 76.8155 63.0501 77.0398 62.8256C77.4638 62.4008 77.8873 61.9754 78.3106 61.5498C78.7926 61.0651 79.2754 60.581 79.7582 60.0971C80.7509 59.1019 81.7428 58.1059 82.7341 57.1094C82.6599 57.0223 82.5857 56.9353 82.5114 56.8483C82.4701 56.7999 82.4287 56.7514 82.3862 56.7015C82.1079 56.3814 81.8033 56.086 81.5036 55.7861C81.4026 55.6836 81.4026 55.6836 81.2995 55.5791C81.2351 55.5145 81.1708 55.45 81.1045 55.3836C81.0461 55.3249 80.9877 55.2662 80.9275 55.2057C80.6399 54.9553 80.5286 55.1541 80.2961 55.3848Z" fill="#F98A16"/>
<path d="M60.0065 47.6264C60.0688 47.6261 60.1311 47.6257 60.1952 47.6253C60.4032 47.6244 60.6112 47.6251 60.8192 47.6259C60.9686 47.6255 61.118 47.6251 61.2674 47.6246C61.6727 47.6235 62.078 47.624 62.4833 47.6247C62.9075 47.6253 63.3318 47.6247 63.7561 47.6244C64.4685 47.6239 65.1809 47.6245 65.8934 47.6256C66.7169 47.6269 67.5405 47.6265 68.3641 47.6252C69.0713 47.6241 69.7785 47.624 70.4857 47.6246C70.9081 47.625 71.3304 47.625 71.7527 47.6242C72.1498 47.6236 72.5468 47.624 72.9439 47.6254C73.0896 47.6257 73.2353 47.6256 73.381 47.6251C73.5799 47.6244 73.7788 47.6253 73.9777 47.6264C74.0353 47.6259 74.0929 47.6254 74.1523 47.6248C74.5182 47.629 74.7671 47.6982 75.0781 47.8906C75.3956 48.2338 75.4993 48.5024 75.4897 48.9745C75.4528 49.2661 75.3469 49.4665 75.1562 49.6874C74.7503 49.9671 74.372 50.0456 73.8878 50.0396C73.8261 50.0401 73.7645 50.0406 73.7009 50.0411C73.4959 50.0423 73.291 50.0414 73.086 50.0404C72.9384 50.0408 72.7908 50.0413 72.6431 50.042C72.2433 50.0434 71.8435 50.0429 71.4437 50.0419C71.0247 50.0411 70.6058 50.0419 70.1868 50.0423C69.4833 50.0429 68.7798 50.0422 68.0763 50.0407C67.2636 50.039 66.451 50.0395 65.6384 50.0412C64.9399 50.0427 64.2414 50.0429 63.543 50.042C63.1261 50.0416 62.7093 50.0415 62.2924 50.0425C61.9005 50.0434 61.5086 50.0428 61.1167 50.041C60.973 50.0406 60.8294 50.0407 60.6858 50.0414C60.4893 50.0422 60.2929 50.0412 60.0964 50.0396C60.04 50.0403 59.9836 50.041 59.9255 50.0417C59.5038 50.0353 59.1836 49.9139 58.8281 49.6874C58.6136 49.4562 58.5243 49.1954 58.5037 48.8821C58.5301 48.4802 58.6355 48.1979 58.9062 47.8906C59.2723 47.663 59.585 47.6226 60.0065 47.6264Z" fill="url(#paint1_linear_1440_1315)"/>
<path d="M60.131 42.3327C60.1918 42.3325 60.2525 42.3323 60.3151 42.332C60.5189 42.3313 60.7227 42.3312 60.9265 42.3311C61.0725 42.3307 61.2186 42.3304 61.3646 42.3299C61.7615 42.3289 62.1585 42.3284 62.5554 42.3281C62.8034 42.3278 63.0514 42.3275 63.2995 42.3272C64.0756 42.3261 64.8517 42.3253 65.6278 42.325C66.5236 42.3247 67.4193 42.3233 68.315 42.321C69.0075 42.3194 69.6999 42.3186 70.3924 42.3185C70.806 42.3184 71.2195 42.3179 71.633 42.3165C72.0221 42.3152 72.4112 42.3151 72.8003 42.3158C72.9429 42.3158 73.0855 42.3155 73.2281 42.3147C73.4232 42.3137 73.6183 42.3142 73.8135 42.315C73.8695 42.3144 73.9255 42.3137 73.9832 42.3131C74.4 42.3171 74.7025 42.4096 75.078 42.5781C75.3665 42.8739 75.461 43.0869 75.4882 43.5009C75.4829 43.8182 75.4113 44.0282 75.2343 44.2968C74.8382 44.6632 74.527 44.699 74.0059 44.6984C73.9438 44.6987 73.8817 44.6989 73.8177 44.6991C73.609 44.6998 73.4003 44.6999 73.1916 44.7C73.0423 44.7004 72.8929 44.7008 72.7435 44.7012C72.3372 44.7022 71.9309 44.7027 71.5247 44.7031C71.2709 44.7033 71.0172 44.7036 70.7634 44.704C69.9698 44.7051 69.1761 44.7058 68.3825 44.7061C67.4659 44.7065 66.5492 44.7078 65.6326 44.7101C64.9244 44.7118 64.2162 44.7126 63.508 44.7127C63.0849 44.7128 62.6617 44.7132 62.2386 44.7146C61.8406 44.7159 61.4426 44.7161 61.0446 44.7154C60.8985 44.7153 60.7524 44.7157 60.6064 44.7164C60.4069 44.7174 60.2075 44.717 60.008 44.7162C59.9503 44.7168 59.8925 44.7174 59.833 44.7181C59.4668 44.7146 59.2183 44.644 58.9061 44.4531C58.6577 44.1873 58.529 43.9123 58.4716 43.5546C58.5408 43.124 58.6728 42.7765 59.0233 42.5048C59.3947 42.347 59.7304 42.3322 60.131 42.3327Z" fill="url(#paint2_linear_1440_1315)"/>
<path d="M59.621 52.9573C59.6889 52.9567 59.7568 52.9561 59.8267 52.9556C59.9387 52.9553 59.9387 52.9553 60.053 52.9549C60.1708 52.9542 60.1708 52.9542 60.291 52.9534C60.5516 52.9518 60.8123 52.9509 61.073 52.9501C61.1619 52.9498 61.2508 52.9495 61.3424 52.9492C61.813 52.9476 62.2837 52.9464 62.7543 52.9457C63.2407 52.9448 63.727 52.9422 64.2134 52.9391C64.5871 52.937 64.9608 52.9364 65.3345 52.9361C65.5138 52.9357 65.6931 52.9348 65.8724 52.9333C66.1234 52.9314 66.3743 52.9315 66.6253 52.932C66.6993 52.931 66.7734 52.93 66.8497 52.929C67.2883 52.9325 67.5441 52.9853 67.8906 53.2813C68.1231 53.5779 68.1904 53.8435 68.2031 54.2188C68.1307 54.5643 68.0258 54.7895 67.7686 55.0342C67.5193 55.194 67.3901 55.2442 67.0978 55.2459C67.0299 55.2464 66.962 55.247 66.892 55.2476C66.78 55.2479 66.78 55.2479 66.6657 55.2482C66.5872 55.2487 66.5087 55.2492 66.4278 55.2498C66.1671 55.2513 65.9064 55.2522 65.6458 55.253C65.5568 55.2533 65.4679 55.2536 65.3763 55.254C64.9057 55.2556 64.4351 55.2567 63.9645 55.2574C63.4781 55.2583 62.9917 55.261 62.5054 55.2641C62.1317 55.2661 61.758 55.2668 61.3842 55.2671C61.205 55.2675 61.0257 55.2684 60.8464 55.2698C60.5954 55.2717 60.3445 55.2716 60.0935 55.2711C60.0194 55.2721 59.9454 55.2731 59.8691 55.2741C59.4187 55.2706 59.1744 55.2155 58.8281 54.9219C58.6014 54.6639 58.5222 54.4624 58.4961 54.1162C58.5244 53.6981 58.6391 53.4594 58.9502 53.1787C59.1984 53.0069 59.324 52.9589 59.621 52.9573Z" fill="url(#paint3_linear_1440_1315)"/>
</g>
<defs>
<filter id="filter0_d_1440_1315" x="0" y="0" width="140" height="140" filterUnits="userSpaceOnUse" color-interpolation-filters="sRGB">
<feFlood flood-opacity="0" result="BackgroundImageFix"/>
<feColorMatrix in="SourceAlpha" type="matrix" values="0 0 0 0 0 0 0 0 0 0 0 0 0 0 0 0 0 0 127 0" result="hardAlpha"/>
<feMorphology radius="10" operator="erode" in="SourceAlpha" result="effect1_dropShadow_1440_1315"/>
<feOffset dy="20"/>
<feGaussianBlur stdDeviation="20"/>
<feComposite in2="hardAlpha" operator="out"/>
<feColorMatrix type="matrix" values="0 0 0 0 0.0470588 0 0 0 0 0.0470588 0 0 0 0 0.0509804 0 0 0 0.2 0"/>
<feBlend mode="normal" in2="BackgroundImageFix" result="effect1_dropShadow_1440_1315"/>
<feBlend mode="normal" in="SourceGraphic" in2="effect1_dropShadow_1440_1315" result="shape"/>
</filter>
<linearGradient id="paint0_linear_1440_1315" x1="66.9964" y1="31.533" x2="66.9964" y2="68.4697" gradientUnits="userSpaceOnUse">
<stop stop-color="#3736AE"/>
<stop offset="1" stop-color="#2D235D"/>
</linearGradient>
<linearGradient id="paint1_linear_1440_1315" x1="66.997" y1="47.6239" x2="66.997" y2="50.0429" gradientUnits="userSpaceOnUse">
<stop stop-color="#3736AE"/>
<stop offset="1" stop-color="#2D235D"/>
</linearGradient>
<linearGradient id="paint2_linear_1440_1315" x1="66.9799" y1="42.3131" x2="66.9799" y2="44.7181" gradientUnits="userSpaceOnUse">
<stop stop-color="#3736AE"/>
<stop offset="1" stop-color="#2D235D"/>
</linearGradient>
<linearGradient id="paint3_linear_1440_1315" x1="63.3496" y1="52.929" x2="63.3496" y2="55.2741" gradientUnits="userSpaceOnUse">
<stop stop-color="#3736AE"/>
<stop offset="1" stop-color="#2D235D"/>
</linearGradient>
</defs>
</svg>
