<svg width="146" height="41" viewBox="0 0 146 41" fill="none" xmlns="http://www.w3.org/2000/svg">
<g clip-path="url(#clip0_1435_3873)">
<path d="M62.8484 20.6498L62.9008 20.6956H52.0707V32.8417H48.3113V6.78417H62.6815L62.6721 6.79493C66.3346 6.98869 69.2437 10.0188 69.2437 13.7298C69.245 17.3802 66.4275 20.37 62.8484 20.6498ZM65.4856 13.7284C65.4856 11.9712 64.0553 10.5436 62.3007 10.5436C62.224 10.5436 62.1473 10.5463 62.0733 10.5516C62.0572 10.5516 62.041 10.553 62.0249 10.5557H52.072V16.9133H62.3021C64.0553 16.9146 65.4856 15.4857 65.4856 13.7284Z" fill="#3736AE"/>
<path d="M93.2708 29.0822V32.8417H72.991V6.57695H76.7504V29.0822H93.2708Z" fill="#3736AE"/>
<path d="M118.515 6.76802V23.3476C118.515 25.3188 117.798 27.2348 116.457 28.6772C115.937 29.2356 115.368 29.7496 114.756 30.2111C112.571 31.8621 109.852 32.8417 106.902 32.8417C103.947 32.8417 101.223 31.8594 99.0363 30.2031C98.4227 29.7389 97.8495 29.2195 97.3274 28.6544C95.9913 27.2106 95.2769 25.3013 95.2769 23.3355V6.76802H99.0363V21.1598C99.0363 25.4022 102.375 28.949 106.614 29.0782C106.711 29.0822 106.807 29.0836 106.902 29.0836C106.994 29.0836 107.085 29.0822 107.177 29.0796C111.416 28.9571 114.756 25.4036 114.756 21.1611V6.76802H118.515Z" fill="#3736AE"/>
<path d="M144.337 21.6845C144.962 22.7744 145.317 24.0379 145.317 25.3834C145.317 26.7289 144.96 27.9924 144.337 29.0823C143.052 31.3279 140.632 32.8417 137.859 32.8417H129.738C126.963 32.8417 124.542 31.3279 123.253 29.0823C122.66 28.0448 122.304 26.85 122.269 25.5758H126.033C126.14 27.5282 127.761 29.0823 129.74 29.0823H137.86C139.9 29.0823 141.559 27.4232 141.559 25.3834C141.559 23.3436 139.9 21.6845 137.86 21.6845H129.729C127.63 21.6845 125.734 20.818 124.379 19.4227C123.943 18.9746 123.564 18.4714 123.25 17.9251C122.626 16.8353 122.271 15.5718 122.271 14.2263C122.271 12.8808 122.627 11.6173 123.25 10.5274C124.535 8.28174 126.956 6.76802 129.729 6.76802H137.654C137.719 6.76533 137.783 6.76398 137.848 6.76398C137.913 6.76398 137.977 6.76533 138.042 6.76802C140.735 6.8353 143.074 8.33018 144.333 10.5234C144.335 10.5247 144.335 10.5261 144.336 10.5274C144.929 11.5635 145.282 12.757 145.317 14.0298H141.554C141.449 12.1232 139.901 10.596 137.985 10.5274H129.728C127.688 10.5274 126.029 12.1865 126.029 14.2263C126.029 16.1423 127.493 17.722 129.36 17.9063C129.485 17.8996 129.612 17.8955 129.738 17.8955C129.956 17.8955 130.173 17.9063 130.387 17.9238H137.859C140.632 17.9251 143.051 19.4389 144.337 21.6845Z" fill="#3736AE"/>
<path d="M34.3298 39.946H5.61623C2.51479 39.946 0 37.4312 0 34.3298V5.61623C0 2.51479 2.51479 0 5.61623 0H34.3284C37.4299 0 39.9447 2.51479 39.9447 5.61623V34.3284C39.946 37.4312 37.4312 39.946 34.3298 39.946Z" fill="#3736AE"/>
<path d="M29.4887 18.937C33.2023 15.9539 35.1951 11.764 35.2893 6.99002C35.2893 6.98867 35.2893 6.98867 35.2893 6.98867C35.2893 6.95907 35.2664 6.9362 35.2381 6.9362H28.4015L23.0382 6.93754L17.7274 6.9362C17.7113 6.9362 17.6992 6.94831 17.6992 6.96311V17.8646C16.1478 18.0933 14.6839 18.5414 13.3128 19.2088C12.3843 19.6514 11.5124 20.187 10.6944 20.8126L9.22639 22.0734C9.22235 22.0774 9.21563 22.0801 9.2089 22.0801C9.19679 22.0801 9.18603 22.0693 9.18603 22.0545V6.99809C9.18603 6.96311 9.15912 6.9362 9.12682 6.9362C9.12548 6.9362 9.12548 6.9362 9.12413 6.9362L8.83753 6.93754L4.69196 6.93351C4.67313 6.93351 4.65833 6.94965 4.65833 6.9658V32.987C4.65833 32.9991 4.66909 33.0098 4.6812 33.0098L7.8553 33.0071L9.13221 33.0085C9.16046 33.0098 9.18468 32.9856 9.18468 32.956C9.20352 31.0938 9.66638 29.3486 10.5773 27.7219C11.2635 26.5177 12.1489 25.4803 13.232 24.607C14.5547 23.5467 16.0159 22.8847 17.6588 22.4784L17.6992 32.9775C17.6992 32.9964 17.7153 33.0098 17.7315 33.0098L21.028 33.0112L22.1757 33.0125C22.208 33.0125 22.235 32.9856 22.235 32.9533V22.5349C22.235 22.5309 22.235 22.5268 22.2363 22.5241C22.2403 22.4972 22.2672 22.4811 22.2942 22.4865C23.2158 22.7004 24.1012 23.026 24.9516 23.4633C26.7923 24.4455 28.2454 25.8435 29.3111 27.656C30.2449 29.3002 30.7199 31.0723 30.7333 32.9708C30.7333 32.9937 30.7508 33.0112 30.7723 33.0112H35.2449C35.2637 33.0112 35.2772 32.995 35.2772 32.9775C35.2502 28.2251 33.1243 23.871 29.3797 20.9297L28.0745 19.9972L28.0665 19.9892C28.0571 19.9757 28.0597 19.9555 28.0745 19.9434L29.4887 18.937ZM24.9677 16.4787C24.1187 16.9214 23.2293 17.2497 22.2982 17.4623C22.2942 17.4636 22.2901 17.4636 22.2874 17.4636C22.2592 17.4636 22.2376 17.4421 22.2376 17.4138V11.5258C22.2376 11.4975 22.2605 11.476 22.2874 11.476L24.1227 11.4774L29.486 11.4787H29.6824C29.6865 11.4774 29.6932 11.4787 29.6986 11.4814C29.7161 11.4908 29.7215 11.511 29.7121 11.5285L29.1738 12.5282C28.1176 14.229 26.7156 15.5449 24.9677 16.4787Z" fill="white"/>
</g>
<defs>
<clipPath id="clip0_1435_3873">
<rect width="145.317" height="40.09" fill="white"/>
</clipPath>
</defs>
</svg>
